<!-- Generated by IcoMoon.io -->
<svg version="1.1" xmlns="http://www.w3.org/2000/svg" width="41" height="41" viewBox="0 0 41 41">
<title>mingcute--user-3-fill</title>
<path d="M20.5 22.208c4.093 0 7.816 1.186 10.554 2.856 1.367 0.834 2.535 1.818 3.379 2.887 0.83 1.051 1.442 2.308 1.442 3.652 0 1.444-0.702 2.581-1.713 3.393-0.957 0.769-2.219 1.278-3.56 1.633-2.696 0.712-6.293 0.953-10.101 0.953s-7.406-0.239-10.101-0.953c-1.341-0.355-2.603-0.864-3.56-1.633-1.013-0.813-1.713-1.949-1.713-3.393 0-1.344 0.612-2.602 1.442-3.654 0.844-1.068 2.011-2.050 3.379-2.887 2.738-1.667 6.463-2.855 10.554-2.855zM20.5 3.417c4.717 0 8.542 3.824 8.542 8.542s-3.824 8.542-8.542 8.542v0c-4.717 0-8.542-3.824-8.542-8.542s3.824-8.542 8.542-8.542v0z"></path>
</svg>
