<svg xmlns="http://www.w3.org/2000/svg" width="24" height="24" fill="none"><path fill="#E6533C" d="m8.424.428 3.018.873c.339.098.698.098 1.038.002L15.61.41a1.882 1.882 0 0 1 2.167.907l1.635 2.986c.168.307.418.561.723.734l2.543 1.44a1.883 1.883 0 0 1 .869 2.198l-.88 2.82a1.882 1.882 0 0 0 0 1.115l.892 2.894a1.882 1.882 0 0 1-.849 2.18l-2.894 1.692c-.303.177-.55.436-.715.747l-1.348 2.553a1.882 1.882 0 0 1-2.145.941l-3.164-.835a1.883 1.883 0 0 0-.968.002l-3.043.815a1.882 1.882 0 0 1-2.174-.983l-1.341-2.709a1.883 1.883 0 0 0-.816-.834l-2.755-1.438a1.882 1.882 0 0 1-.944-2.17l.807-2.922c.089-.322.09-.661.004-.984L.377 8.405a1.882 1.882 0 0 1 .904-2.128l2.873-1.598c.321-.18.584-.449.754-.775l1.324-2.538A1.882 1.882 0 0 1 8.424.428Z"/><path stroke="#EFEDE8" stroke-linecap="round" stroke-linejoin="round" stroke-width="1.5" d="M12.25 7v10M7 12h10"/></svg>