<!-- Generated by IcoMoon.io -->
<svg version="1.1" xmlns="http://www.w3.org/2000/svg" width="9925" height="1024" viewBox="0 0 9925 1024">
<title>LogoTabletMobile</title>
<g id="icomoon-ignore">
</g>
<path fill="#e6533c" d="M2762.547 438.857c40.401 0 73.145 32.747 73.145 73.143s-32.744 73.143-73.145 73.143h-50.633c-43.504 0-78.769 35.267-78.769 78.769v135.036c0 43.496-35.265 78.769-78.769 78.769h-50.641c-40.393 0-73.145 32.744-73.145 73.137 0 40.401-32.744 73.145-73.137 73.145h-151.914c-43.504 0-78.769-35.265-78.769-78.769v-281.319c0-43.503-35.265-78.769-78.769-78.769h-1260.308c-43.503 0-78.769 35.267-78.769 78.769v281.319c0 43.504-35.267 78.769-78.769 78.769h-151.912c-40.396 0-73.143-32.744-73.143-73.145 0-40.393-32.748-73.137-73.143-73.137h-50.638c-43.503 0-78.769-35.273-78.769-78.769v-135.036c0-43.503-35.267-78.769-78.769-78.769h-50.637c-40.396 0-73.143-32.747-73.143-73.143s32.747-73.143 73.143-73.143h50.637c43.503 0 78.769-35.267 78.769-78.769v-135.033c0-43.503 35.266-78.769 78.769-78.769h50.638c40.395 0 73.143-32.747 73.143-73.143s32.747-73.143 73.143-73.143h151.912c43.503 0 78.769 35.266 78.769 78.769v281.319c0 43.503 35.267 78.769 78.769 78.769h1260.308c43.504 0 78.769-35.267 78.769-78.769v-281.319c0-43.503 35.265-78.769 78.769-78.769h151.914c40.393 0 73.137 32.747 73.137 73.143s32.752 73.143 73.145 73.143h50.641c43.504 0 78.769 35.267 78.769 78.769v135.033c0 43.503 35.265 78.769 78.769 78.769h50.633z"></path>
<path fill="#efede8" d="M3465.846 968.507v-867.181h324.49c49.325 0 93.885 11.769 133.687 35.307 40.235 23.538 72.034 55.128 95.397 94.771 23.371 39.642 35.052 83.208 35.052 130.697 0 48.727-12.115 92.912-36.344 132.555-23.796 39.229-55.816 70.613-96.051 94.151-40.235 23.125-84.149 34.688-131.742 34.688h-166.14v345.012h-158.35zM3624.196 472.357h149.268c22.496 0 43.047-5.368 61.653-16.104s33.312-25.19 44.127-43.359c11.248-18.17 16.872-38.404 16.872-60.703 0-22.712-5.624-43.153-16.872-61.323-10.815-18.17-25.521-32.622-44.127-43.359s-39.156-16.104-61.653-16.104h-149.268v240.953z"></path>
<path fill="#efede8" d="M4414.314 984.615c-59.699 0-114.215-14.659-163.541-43.977-48.892-29.318-88.040-68.553-117.461-117.689-28.987-49.555-43.488-104.271-43.488-164.147 0-45.424 8.444-87.751 25.316-126.981 16.872-39.643 40.015-74.331 69.435-104.062 29.854-30.145 64.465-53.683 103.841-70.613 39.369-16.931 81.337-25.396 125.897-25.396 59.707 0 114.003 14.659 162.895 43.978 49.325 29.319 88.481 68.755 117.469 118.308 29.42 49.554 44.127 104.476 44.127 164.766 0 45.010-8.436 87.131-25.309 126.361-16.872 39.228-40.235 73.918-70.089 104.063-29.42 29.728-63.819 53.059-103.188 69.994-38.936 16.928-80.904 25.395-125.905 25.395zM4414.314 833.481c31.586 0 59.928-8.058 85.016-24.159 25.096-16.108 44.78-37.374 59.061-63.802 14.706-26.428 22.063-55.335 22.063-86.718 0-32.21-7.57-61.529-22.717-87.958-14.706-26.841-34.824-48.108-60.353-63.8-25.088-16.105-52.783-24.157-83.070-24.157-31.145 0-59.274 8.052-84.362 24.157-25.096 16.105-45.001 37.578-59.707 64.42-14.714 26.841-22.063 55.954-22.063 87.338 0 32.622 7.57 62.148 22.709 88.576 15.147 26.429 35.265 47.49 60.353 63.181 25.529 15.281 53.216 22.922 83.070 22.922z"></path>
<path fill="#efede8" d="M5144.308 968.507h-157.058l-216.757-619.414h155.104l140.832 400.763 140.178-400.763h156.404l140.178 400.763 140.832-400.763h155.104l-216.757 619.414h-157.058l-140.824-402.618-140.178 402.618z"></path>
<path fill="#efede8" d="M6155.91 984.615c-59.707 0-114.223-14.659-163.541-43.977-48.892-29.318-88.048-68.758-117.469-118.311-28.987-49.552-43.481-104.268-43.481-164.145 0-45.011 8.436-87.131 25.309-126.361 16.872-39.643 40.023-74.331 69.443-104.062 29.854-30.145 64.465-53.683 103.834-70.613 39.377-16.931 81.345-25.396 125.905-25.396 50.617 0 96.918 10.323 138.878 30.97 42.401 20.234 78.312 48.108 107.733 83.621s50.838 75.982 64.252 121.405c13.407 45.424 16.439 92.913 9.082 142.466h-474.403c6.057 23.125 16.014 43.979 29.854 62.562 13.848 18.17 31.366 32.829 52.571 43.975 21.197 10.736 45.214 16.313 72.034 16.731 27.687 0.41 52.783-5.782 75.28-18.59 22.93-13.21 41.968-30.967 57.116-53.266l161.595 35.929c-26.396 54.918-65.764 99.927-118.114 135.026-52.35 34.69-110.978 52.035-175.876 52.035zM5996.26 596.86h319.299c-4.758-24.777-14.927-47.076-30.499-66.897-15.147-20.234-33.965-36.339-56.462-48.315-22.504-11.975-46.726-17.963-72.688-17.963s-49.971 5.988-72.034 17.963c-22.063 11.563-40.889 27.461-56.462 47.695-15.147 19.821-25.529 42.327-31.153 67.517z"></path>
<path fill="#efede8" d="M6582.099 968.507l-0.654-619.414h158.35l0.654 55.128c22.063-22.3 48.451-39.849 79.171-52.651 30.72-13.214 63.819-19.821 99.296-19.821 23.796 0 47.592 3.303 71.389 9.91l-62.306 152.377c-16.439-6.194-32.878-9.291-49.317-9.291-25.529 0-48.892 5.987-70.089 17.963-20.771 11.563-37.423 27.461-49.971 47.696-12.115 19.821-18.172 41.914-18.172 66.277v351.826h-158.35z"></path>
<path fill="#efede8" d="M7063.111 968.507v-867.181h324.49c49.317 0 93.885 11.769 133.687 35.307 40.235 23.538 72.034 55.128 95.397 94.771s35.044 83.208 35.044 130.697c0 48.727-12.115 92.912-36.336 132.555-23.796 39.229-55.816 70.613-96.051 94.151-40.235 23.125-84.149 34.688-131.742 34.688h-166.14v345.012h-158.35zM7221.461 472.357h149.268c22.496 0 43.047-5.368 61.653-16.104s33.312-25.19 44.127-43.359c11.248-18.17 16.872-38.404 16.872-60.703 0-22.712-5.624-43.153-16.872-61.323-10.815-18.17-25.521-32.622-44.127-43.359s-39.156-16.104-61.653-16.104h-149.268v240.953z"></path>
<path fill="#efede8" d="M7719.085 739.326v-390.233h158.389v350.59c0 24.364 6.223 46.663 18.747 66.897 12.603 19.821 29.223 35.723 50.018 47.696 21.189 11.563 44.347 17.345 69.396 17.345 25.994 0 49.388-5.782 70.105-17.345 20.795-11.973 37.415-27.875 50.018-47.696 12.524-20.234 18.826-42.533 18.826-66.897v-350.59h158.326l0.63 619.414h-158.326l-0.63-56.367c-22.528 22.3-49.152 40.062-79.872 53.272-30.72 12.8-63.567 19.204-98.619 19.204-47.183 0-90.191-10.941-129.158-32.831-38.944-22.3-70.089-51.822-93.452-88.576-22.93-37.163-34.399-78.458-34.399-123.882z"></path>
<path fill="#efede8" d="M8447.291 968.507v-929.122h158.326v929.122h-158.326z"></path>
<path fill="#efede8" d="M8953.068 979.661c-33.792-2.064-66.402-8.468-97.989-19.204-31.193-11.146-58.841-26.222-83.102-45.214-24.182-18.999-42.85-41.708-55.769-68.135l133.671-54.508c5.199 8.255 13.627 17.132 25.285 26.632 11.658 9.082 25.521 16.723 41.511 22.914 16.463 6.199 34.422 9.295 53.878 9.295 16.463 0 32.059-2.064 46.71-6.191 15.202-4.545 27.333-11.359 36.391-20.441 9.531-9.090 14.257-20.858 14.257-35.312 0-15.276-5.593-27.045-16.857-35.304-10.791-8.672-24.655-15.072-41.511-19.202-16.463-4.543-32.453-8.672-48.049-12.388-41.118-7.846-79.399-20.028-114.846-36.546-35.052-16.518-63.409-37.785-85.071-63.8-21.189-26.429-31.744-58.225-31.744-95.39 0-40.882 11.185-76.189 33.713-105.92 22.922-29.732 52.539-52.651 88.93-68.755 36.785-16.105 76.327-24.158 118.784-24.158 51.436 0 98.619 10.323 141.47 30.971 43.244 20.234 77.43 48.934 102.479 86.099l-125.243 70.613c-6.065-9.911-14.494-18.995-25.285-27.254-10.791-8.672-23.158-15.692-37.022-21.061-13.785-5.781-28.278-9.084-43.481-9.91-19.456-0.826-37.179 0.826-53.169 4.955-16.069 4.13-28.987 11.15-38.991 21.061-9.452 9.911-14.257 23.125-14.257 39.643 0 15.692 6.538 27.461 19.456 35.307 12.997 7.433 28.593 13.214 46.71 17.343 18.668 4.13 36.391 8.672 53.248 13.627 38.046 11.975 73.807 26.635 107.126 43.979 33.713 17.343 60.731 38.61 81.054 63.8 20.401 25.19 30.090 55.335 29.223 90.434 0 40.059-12.524 75.158-37.652 105.303-25.049 29.728-57.502 52.445-97.359 68.135-39.306 15.691-81.526 21.882-126.503 18.582z"></path>
<path fill="#efede8" d="M9601.103 984.615c-59.707 0-114.215-14.659-163.604-43.977-48.837-29.318-87.985-68.758-117.445-118.311-28.987-49.552-43.481-104.268-43.481-164.145 0-45.011 8.428-87.131 25.285-126.361 16.935-39.643 40.015-74.331 69.474-104.062 29.854-30.145 64.433-53.683 103.818-70.613s81.369-25.396 125.952-25.396c50.57 0 96.886 10.323 138.87 30.97 42.378 20.234 78.297 48.108 107.678 83.621 29.46 35.513 50.885 75.982 64.276 121.405s16.463 92.913 9.058 142.466h-474.348c6.065 23.125 15.99 43.979 29.854 62.562 13.785 18.17 31.35 32.829 52.539 43.975 21.189 10.736 45.214 16.313 72.074 16.731 27.648 0.41 52.775-5.782 75.225-18.59 22.922-13.21 41.984-30.967 57.108-53.266l161.634 35.929c-26.388 54.918-65.772 99.927-118.154 135.026-52.303 34.69-110.986 52.035-175.813 52.035zM9441.438 596.86h319.252c-4.726-24.777-14.887-47.076-30.484-66.897-15.124-20.234-33.95-36.339-56.478-48.315-22.449-11.975-46.71-17.963-72.625-17.963-25.994 0-50.018 5.988-72.074 17.963-22.055 11.563-40.881 27.461-56.478 47.695-15.124 19.821-25.521 42.327-31.114 67.517z"></path>
</svg>
