<svg xmlns="http://www.w3.org/2000/svg" viewBox="0 0 151 17"><path fill="#e6533c" d="M80.941 13.714c1.04 0 1.882.843 1.882 1.882v.807c0 1.04-.843 1.882-1.882 1.882H78.79a1.883 1.883 0 0 0-1.882 1.882v5.378c0 1.04-.843 1.882-1.882 1.882h-2.151c-1.04 0-1.882.843-1.882 1.882v.807c0 1.04-.843 1.882-1.882 1.882h-5.109a1.882 1.882 0 0 1-1.882-1.882v-9.95c0-1.04-.843-1.882-1.882-1.882H22.591c-1.04 0-1.882.843-1.882 1.882v9.95c0 1.04-.843 1.882-1.882 1.882h-5.109a1.882 1.882 0 0 1-1.882-1.882v-.807c0-1.04-.843-1.882-1.882-1.882H7.803a1.882 1.882 0 0 1-1.882-1.882v-5.378c0-1.04-.843-1.882-1.882-1.882H1.888a1.882 1.882 0 0 1-1.882-1.882v-.807c0-1.04.843-1.882 1.882-1.882h2.151c1.04 0 1.882-.843 1.882-1.882V6.454c0-1.04.843-1.882 1.882-1.882h2.151c1.04 0 1.882-.843 1.882-1.882v-.807c0-1.04.843-1.882 1.882-1.882h5.109c1.04 0 1.882.843 1.882 1.882v9.95c0 1.04.843 1.882 1.882 1.882h37.647c1.04 0 1.882-.843 1.882-1.882v-9.95c0-1.04.843-1.882 1.882-1.882h5.109c1.04 0 1.882.843 1.882 1.882v.807c0 1.04.843 1.882 1.882 1.882h2.151c1.04 0 1.882.843 1.882 1.882v5.378c0 1.04.843 1.882 1.882 1.882h2.151z"/><path fill="#efede8" d="M97.882 29.873V3.52h9.412c1.431 0 2.723.358 3.878 1.073 1.167.715 2.089 1.675 2.767 2.88s1.016 2.529 1.016 3.972c0 1.481-.351 2.824-1.054 4.028a8.007 8.007 0 0 1-2.786 2.861 7.27 7.27 0 0 1-3.821 1.054h-4.819v10.485h-4.593zm4.593-15.078h4.329c.653 0 1.249-.163 1.788-.489s.966-.765 1.28-1.318a3.56 3.56 0 0 0 .489-1.845 3.6 3.6 0 0 0-.489-1.864c-.314-.552-.74-.991-1.28-1.318s-1.136-.489-1.788-.489h-4.329v7.322zM125.393 30.362c-1.732 0-3.313-.446-4.744-1.336a10.019 10.019 0 0 1-3.407-3.576c-.841-1.506-1.261-3.169-1.261-4.988 0-1.38.245-2.667.734-3.859a10.07 10.07 0 0 1 2.014-3.162c.866-.916 1.87-1.631 3.012-2.146s2.359-.772 3.652-.772c1.732 0 3.307.445 4.725 1.336a9.765 9.765 0 0 1 3.407 3.595c.853 1.506 1.28 3.175 1.28 5.007 0 1.368-.245 2.648-.734 3.84s-1.167 2.246-2.033 3.162a9.351 9.351 0 0 1-2.993 2.127 8.712 8.712 0 0 1-3.652.772zm0-4.593c.916 0 1.738-.245 2.466-.734s1.299-1.136 1.713-1.939c.427-.803.64-1.681.64-2.635 0-.979-.219-1.87-.659-2.673a5.03 5.03 0 0 0-1.751-1.939 4.229 4.229 0 0 0-2.409-.734c-.904 0-1.719.245-2.447.734s-1.305 1.142-1.732 1.958c-.427.816-.64 1.7-.64 2.654 0 .991.22 1.889.659 2.692s1.023 1.443 1.751 1.92a4.455 4.455 0 0 0 2.409.696zM146.566 29.873h-4.555l-6.287-18.824h4.499l4.085 12.179 4.066-12.179h4.536l4.066 12.179 4.085-12.179h4.499l-6.287 18.824h-4.555l-4.085-12.235-4.066 12.235zM175.907 30.362c-1.732 0-3.313-.446-4.744-1.336-1.418-.891-2.554-2.089-3.407-3.595-.841-1.506-1.261-3.169-1.261-4.988 0-1.368.245-2.648.734-3.84a10.07 10.07 0 0 1 2.014-3.162c.866-.916 1.87-1.631 3.012-2.146s2.359-.772 3.652-.772c1.468 0 2.811.314 4.028.941 1.23.615 2.271 1.462 3.125 2.541s1.474 2.309 1.864 3.689c.389 1.38.477 2.824.264 4.329h-13.76c.176.703.464 1.336.866 1.901.401.552.91.998 1.525 1.336.615.326 1.311.496 2.089.508a4.054 4.054 0 0 0 2.184-.565 5.087 5.087 0 0 0 1.656-1.619l4.687 1.092a10.073 10.073 0 0 1-3.426 4.104c-1.518 1.054-3.219 1.581-5.101 1.581zm-4.63-11.783h9.261a4.772 4.772 0 0 0-.885-2.033c-.439-.615-.985-1.104-1.638-1.468s-1.355-.546-2.108-.546-1.449.182-2.089.546a5.018 5.018 0 0 0-1.638 1.449 5.318 5.318 0 0 0-.904 2.052zM188.269 29.873l-.019-18.824h4.593l.019 1.675a6.92 6.92 0 0 1 2.296-1.6 6.913 6.913 0 0 1 2.88-.602c.689 0 1.38.1 2.071.301l-1.807 4.631a3.882 3.882 0 0 0-1.431-.282 3.91 3.91 0 0 0-2.033.546 4.002 4.002 0 0 0-1.449 1.449 3.917 3.917 0 0 0-.527 2.014v10.692h-4.593zM202.221 29.873V3.52h9.412c1.431 0 2.722.358 3.878 1.073 1.167.715 2.089 1.675 2.767 2.88s1.016 2.529 1.016 3.972c0 1.481-.352 2.824-1.054 4.028a8.015 8.015 0 0 1-2.786 2.861 7.27 7.27 0 0 1-3.821 1.054h-4.819v10.485h-4.593zm4.593-15.078h4.329c.651 0 1.248-.163 1.788-.489a3.589 3.589 0 0 0 1.28-1.318 3.56 3.56 0 0 0 .489-1.845 3.61 3.61 0 0 0-.489-1.864 3.604 3.604 0 0 0-1.28-1.318 3.396 3.396 0 0 0-1.788-.489h-4.329v7.322zM221.248 22.908V11.049h4.593v10.654c0 .74.181 1.418.546 2.033a4.205 4.205 0 0 0 1.449 1.449 3.99 3.99 0 0 0 2.014.527c.753 0 1.431-.176 2.033-.527a4.248 4.248 0 0 0 1.449-1.449 3.928 3.928 0 0 0 .546-2.033V11.049h4.593l.019 18.824h-4.595l-.017-1.713a7.416 7.416 0 0 1-2.315 1.619 7.077 7.077 0 0 1-2.861.584c-1.368 0-2.618-.333-3.748-.998a7.852 7.852 0 0 1-2.709-2.692c-.666-1.129-.998-2.384-.998-3.765zM242.368 29.873V1.638h4.593v28.235h-4.593zM257.039 30.212a10.38 10.38 0 0 1-2.842-.584 8.411 8.411 0 0 1-2.409-1.374 5.87 5.87 0 0 1-1.619-2.071l3.878-1.656c.151.251.395.521.734.809.339.276.74.508 1.205.696a4.22 4.22 0 0 0 1.562.282c.476 0 .928-.063 1.355-.188.439-.138.791-.345 1.054-.621.275-.276.414-.634.414-1.073 0-.464-.164-.822-.489-1.073-.314-.264-.715-.458-1.205-.584a37.86 37.86 0 0 0-1.393-.376 13.641 13.641 0 0 1-3.332-1.111c-1.016-.502-1.839-1.148-2.466-1.939-.616-.803-.922-1.769-.922-2.899 0-1.242.326-2.315.979-3.219a6.57 6.57 0 0 1 2.579-2.089 8.159 8.159 0 0 1 3.445-.734c1.493 0 2.861.314 4.104.941 1.254.615 2.246 1.487 2.974 2.616l-3.633 2.146a3.063 3.063 0 0 0-.734-.828 3.986 3.986 0 0 0-1.073-.64 3.644 3.644 0 0 0-1.261-.301 5.032 5.032 0 0 0-1.544.151c-.465.125-.841.339-1.129.64-.277.301-.414.703-.414 1.205 0 .477.188.834.565 1.073.376.226.828.402 1.355.527.538.125 1.054.264 1.544.414a18.8 18.8 0 0 1 3.106 1.336c.979.527 1.762 1.173 2.353 1.939.589.766.872 1.681.847 2.748 0 1.217-.365 2.284-1.092 3.2-.728.904-1.67 1.594-2.824 2.071-1.143.477-2.366.665-3.671.565zM275.834 30.362c-1.732 0-3.313-.446-4.744-1.336-1.419-.891-2.554-2.089-3.407-3.595-.841-1.506-1.261-3.169-1.261-4.988 0-1.368.245-2.648.734-3.84a10.052 10.052 0 0 1 2.014-3.162 9.447 9.447 0 0 1 3.012-2.146 8.776 8.776 0 0 1 3.652-.772c1.468 0 2.81.314 4.028.941a9.185 9.185 0 0 1 3.125 2.541 10.474 10.474 0 0 1 1.864 3.689c.388 1.38.476 2.824.264 4.329h-13.76c.175.703.463 1.336.866 1.901.401.552.909.998 1.525 1.336.614.326 1.31.496 2.089.508a4.059 4.059 0 0 0 2.184-.565 5.107 5.107 0 0 0 1.656-1.619l4.687 1.092a10.08 10.08 0 0 1-3.426 4.104c-1.519 1.054-3.219 1.581-5.101 1.581zm-4.63-11.783h9.261a4.784 4.784 0 0 0-.885-2.033 4.972 4.972 0 0 0-1.638-1.468c-.653-.364-1.355-.546-2.108-.546s-1.449.182-2.089.546a5.018 5.018 0 0 0-1.638 1.449 5.288 5.288 0 0 0-.904 2.052z"/></svg>