<!-- Generated by IcoMoon.io -->
<svg version="1.1" xmlns="http://www.w3.org/2000/svg" width="9156" height="1024" viewBox="0 0 9156 1024">
<title></title>
<g id="icomoon-ignore">
</g>
<path fill="#efede8" d="M2590.118 438.857c33.268 0 60.235 26.969 60.235 60.235v25.816c0 33.267-26.967 60.235-60.235 60.235h-68.843c-33.262 0-60.235 26.968-60.235 60.236v172.098c0 33.268-26.967 60.235-60.235 60.235h-68.837c-33.268 0-60.235 26.967-60.235 60.235v25.817c0 33.268-26.967 60.235-60.235 60.235h-163.497c-33.268 0-60.235-26.967-60.235-60.235v-318.386c0-33.268-26.967-60.236-60.235-60.236h-1204.706c-33.268 0-60.235 26.968-60.235 60.236v318.386c0 33.268-26.967 60.235-60.235 60.235h-163.495c-33.267 0-60.236-26.967-60.236-60.235v-25.817c0-33.268-26.968-60.235-60.235-60.235h-68.84c-33.267 0-60.235-26.967-60.235-60.235v-172.098c0-33.268-26.969-60.236-60.235-60.236h-68.841c-33.267 0-60.235-26.969-60.235-60.235v-25.816c0-33.267 26.968-60.235 60.235-60.235h68.841c33.267 0 60.235-26.968 60.235-60.235v-172.101c0-33.267 26.968-60.235 60.235-60.235h68.841c33.267 0 60.235-26.968 60.235-60.235v-25.815c0-33.267 26.969-60.235 60.235-60.235h163.496c33.268 0 60.235 26.968 60.235 60.235v318.387c0 33.267 26.967 60.235 60.235 60.235h1204.706c33.268 0 60.235-26.968 60.235-60.235v-318.386c0-33.267 26.967-60.235 60.235-60.235h163.497c33.268 0 60.235 26.968 60.235 60.235v25.815c0 33.267 26.967 60.235 60.235 60.235h68.837c33.268 0 60.235 26.969 60.235 60.235v172.101c0 33.267 26.973 60.235 60.235 60.235h68.843z"></path>
<path fill="#efede8" d="M3132.235 955.94v-843.293h301.176c45.779 0 87.142 11.445 124.085 34.334 37.346 22.889 66.861 53.609 88.546 92.16s32.527 80.916 32.527 127.096c0 47.385-11.246 90.353-33.732 128.904-22.088 38.149-51.802 68.668-89.148 91.558-37.346 22.491-78.107 33.731-122.278 33.731h-154.202v335.511h-146.974zM3279.209 473.457h138.541c20.884 0 39.954-5.221 57.224-15.661s30.919-24.496 40.96-42.165c10.439-17.669 15.661-37.346 15.661-59.031 0-22.086-5.222-41.964-15.661-59.633-10.041-17.669-23.691-31.724-40.96-42.165s-36.34-15.661-57.224-15.661h-138.541v234.315z"></path>
<path fill="#efede8" d="M4012.562 971.601c-55.416 0-106.014-14.252-151.793-42.767-45.375-28.509-81.715-66.656-109.026-114.447-26.901-48.188-40.358-101.394-40.358-159.624 0-44.171 7.831-85.332 23.492-123.481 15.661-38.551 37.147-72.282 64.452-101.195 27.708-29.315 59.838-52.204 96.376-68.668 36.545-16.465 75.499-24.696 116.856-24.696 55.416 0 105.815 14.256 151.191 42.767 45.779 28.511 82.125 66.861 109.026 115.049 27.311 48.188 40.96 101.596 40.96 160.225 0 43.773-7.831 84.733-23.492 122.88-15.661 38.153-37.346 71.885-65.054 101.195-27.305 28.913-59.229 51.604-95.774 68.066-36.141 16.468-75.089 24.696-116.856 24.696zM4012.562 824.627c29.317 0 55.621-7.831 78.908-23.492 23.293-15.661 41.562-36.34 54.814-62.042 13.655-25.696 20.48-53.808 20.48-84.329 0-31.322-7.023-59.832-21.082-85.533-13.649-26.102-32.322-46.783-56.019-62.042-23.287-15.661-48.989-23.492-77.101-23.492-28.913 0-55.013 7.831-78.306 23.492-23.287 15.661-41.761 36.542-55.416 62.645-13.649 26.102-20.48 54.415-20.48 84.931 0 31.726 7.029 60.44 21.082 86.136 14.059 25.702 32.732 46.182 56.019 61.44 23.697 14.86 49.393 22.287 77.101 22.287z"></path>
<path fill="#efede8" d="M4690.107 955.94h-145.769l-201.186-602.352h143.962l130.711 389.721 130.108-389.721h145.167l130.108 389.721 130.711-389.721h143.962l-201.186 602.352h-145.769l-130.711-391.528-130.108 391.528z"></path>
<path fill="#efede8" d="M5629.036 971.601c-55.416 0-106.014-14.252-151.793-42.767-45.381-28.509-81.721-66.861-109.026-115.049-26.907-48.188-40.358-101.394-40.358-159.624 0-43.767 7.831-84.73 23.492-122.879 15.661-38.551 37.141-72.282 64.452-101.195 27.708-29.315 59.832-52.204 96.376-68.668 36.539-16.465 75.493-24.696 116.856-24.696 46.984 0 89.949 10.039 128.904 30.118 39.352 19.676 72.68 46.782 99.991 81.318 27.305 34.535 47.182 73.888 59.633 118.061 12.445 44.175 15.258 90.352 8.433 138.54h-440.32c5.62 22.492 14.854 42.767 27.708 60.838 12.848 17.673 29.112 31.925 48.791 42.767 19.673 10.445 41.96 15.866 66.861 16.264 25.696 0.404 48.989-5.62 69.873-18.071 21.281-12.848 38.948-30.118 53.007-51.802l149.986 34.936c-24.498 53.411-61.042 97.184-109.628 131.313-48.592 33.732-103.002 50.598-163.238 50.598zM5480.858 594.53h296.358c-4.421-24.094-13.854-45.779-28.311-65.054-14.059-19.677-31.527-35.338-52.405-46.984-20.884-11.646-43.369-17.468-67.464-17.468s-46.381 5.822-66.861 17.468c-20.48 11.244-37.948 26.704-52.405 46.381-14.059 19.275-23.697 41.161-28.913 65.656z"></path>
<path fill="#efede8" d="M6024.614 955.94l-0.602-602.352h146.974l0.602 53.609c20.48-21.685 44.936-38.752 73.487-51.2 28.491-12.851 59.211-19.275 92.16-19.275 22.046 0 44.152 3.212 66.259 9.638l-57.826 148.179c-15.3-6.024-30.539-9.035-45.779-9.035-23.733 0-45.417 5.822-65.054 17.468-19.275 11.244-34.756 26.704-46.381 46.381-11.264 19.275-16.866 40.759-16.866 64.451v342.136h-146.974z"></path>
<path fill="#efede8" d="M6471.078 955.94v-843.293h301.176c45.779 0 87.1 11.445 124.085 34.334 37.346 22.889 66.861 53.609 88.546 92.16s32.527 80.916 32.527 127.096c0 47.385-11.264 90.353-33.732 128.904-22.106 38.149-51.802 68.668-89.148 91.558-37.346 22.491-78.125 33.731-122.278 33.731h-154.202v335.511h-146.974zM6618.052 473.457h138.541c20.841 0 39.936-5.221 57.224-15.661 17.227-10.441 30.901-24.496 40.96-42.165 10.421-17.669 15.661-37.346 15.661-59.031 0-22.086-5.24-41.964-15.661-59.633-10.059-17.669-23.733-31.724-40.96-42.165-17.288-10.441-36.382-15.661-57.224-15.661h-138.541v234.315z"></path>
<path fill="#efede8" d="M7079.936 733.070v-379.481h146.974v340.931c0 23.697 5.783 45.381 17.468 65.054 11.625 19.275 27.106 34.738 46.381 46.381 19.637 11.246 41.141 16.866 64.452 16.866 24.094 0 45.779-5.62 65.054-16.866 19.215-11.643 34.696-27.106 46.381-46.381 11.625-19.673 17.468-41.358 17.468-65.054v-340.931h146.974l0.602 602.352h-147.034l-0.542-54.814c-20.902 21.685-45.598 38.954-74.089 51.802-28.552 12.451-59.031 18.673-91.558 18.673-43.791 0-83.787-10.638-119.928-31.925-36.081-21.685-64.994-50.393-86.679-86.136-21.323-36.141-31.925-76.294-31.925-120.471z"></path>
<path fill="#efede8" d="M7755.776 955.94v-903.528h146.974v903.528h-146.974z"></path>
<path fill="#efede8" d="M8225.25 966.782c-31.322-2.006-61.681-8.228-90.955-18.673-28.913-10.842-54.633-25.498-77.101-43.972-22.528-18.468-39.755-40.556-51.802-66.259l124.085-53.007c4.819 8.035 12.649 16.667 23.492 25.901 10.842 8.837 23.672 16.264 38.551 22.287 15.24 6.024 31.925 9.035 49.995 9.035 15.24 0 29.696-2.006 43.369-6.024 14.035-4.415 25.299-11.041 33.732-19.878 8.794-8.83 13.252-20.275 13.252-34.334 0-14.854-5.24-26.299-15.661-34.334-10.059-8.433-22.889-14.655-38.551-18.673-15.3-4.415-30.118-8.433-44.574-12.047-38.189-7.626-73.728-19.474-106.616-35.539-32.527-16.059-58.85-36.744-78.908-62.042-19.697-25.699-29.515-56.62-29.515-92.761 0-39.755 10.421-74.089 31.322-103.002 21.263-28.913 48.791-51.2 82.522-66.861 34.093-15.661 70.837-23.492 110.231-23.492 47.767 0 91.558 10.039 131.313 30.118 40.117 19.676 71.861 47.586 95.172 83.727l-116.254 68.668c-5.662-9.638-13.493-18.472-23.492-26.504-10.059-8.433-21.504-15.26-34.334-20.48-12.89-5.622-26.323-8.835-40.358-9.638-18.071-0.804-34.575 0.803-49.393 4.819-14.878 4.015-26.925 10.842-36.141 20.48-8.855 9.638-13.252 22.488-13.252 38.551 0 15.259 6.024 26.704 18.071 34.334 12.047 7.228 26.504 12.85 43.369 16.866 17.227 4.015 33.732 8.433 49.393 13.252 35.298 11.645 68.427 25.9 99.388 42.766 31.322 16.866 56.38 37.551 75.294 62.042 18.854 24.498 27.889 53.814 27.106 87.944 0 38.954-11.686 73.090-34.936 102.4-23.311 28.913-53.429 51.001-90.353 66.259-36.563 15.264-75.716 21.287-117.459 18.071z"></path>
<path fill="#efede8" d="M8826.699 971.601c-55.416 0-106.014-14.252-151.793-42.767-45.417-28.509-81.739-66.861-109.026-115.049-26.925-48.188-40.358-101.394-40.358-159.624 0-43.767 7.831-84.73 23.492-122.879 15.661-38.551 37.105-72.282 64.452-101.195 27.708-29.315 59.814-52.204 96.376-68.668 36.503-16.465 75.475-24.696 116.856-24.696 46.984 0 89.931 10.039 128.904 30.118 39.334 19.676 72.644 46.782 99.991 81.318 27.287 34.535 47.164 73.888 59.633 118.061 12.408 44.175 15.24 90.352 8.433 138.54h-440.32c5.602 22.492 14.818 42.767 27.708 60.838 12.83 17.673 29.094 31.925 48.791 42.767 19.637 10.445 41.924 15.866 66.861 16.264 25.66 0.404 48.971-5.62 69.873-18.071 21.263-12.848 38.912-30.118 53.007-51.802l149.986 34.936c-24.516 53.411-61.079 97.184-109.628 131.313-48.61 33.732-103.002 50.598-163.238 50.598zM8678.52 594.53h296.358c-4.457-24.094-13.854-45.779-28.311-65.054-14.095-19.677-31.563-35.338-52.405-46.984-20.902-11.646-43.369-17.468-67.464-17.468s-46.381 5.822-66.861 17.468c-20.48 11.244-37.948 26.704-52.405 46.381-14.095 19.275-23.733 41.161-28.913 65.656z"></path>
</svg>
