<svg xmlns="http://www.w3.org/2000/svg" aria-hidden="true" style="position:absolute;width:0;height:0;overflow:hidden"><defs><symbol id="trash-icon" viewBox="0 0 32 32"><path fill="none" stroke="#ef8964" stroke-linecap="round" stroke-linejoin="round" stroke-width="2.4" d="M12 4h8m-6.667 10v6.667M18.667 14v6.667M4 8h24m-2.667 0-.934 14.026c-.141 2.104-.211 3.157-.666 3.955a4.026 4.026 0 0 1-1.708 1.609l-.023.01c-.826.4-1.88.4-3.989.4h-4.026c-2.109 0-3.163 0-3.989-.4A4.031 4.031 0 0 1 8.277 26l-.01-.019c-.454-.8-.525-1.851-.666-3.955L6.667 8" style="stroke:var(--color1, #ef8964)"/></symbol><symbol id="search" viewBox="0 0 32 32"><path fill="none" stroke="#efede8" stroke-linecap="round" stroke-linejoin="round" stroke-width="2.667" d="M14.667 25.333c5.891 0 10.667-4.776 10.667-10.667S20.558 3.999 14.667 3.999v0C8.776 3.999 4 8.775 4 14.666s4.776 10.667 10.667 10.667v0zM28 28l-5.799-5.799" style="stroke:var(--color2, #efede8)"/></symbol><symbol id="x-red" viewBox="0 0 32 32"><path fill="none" stroke="#e6533c" stroke-linecap="round" stroke-linejoin="round" stroke-width="3.556" d="M24 8 8 24M8 8l16 16" style="stroke:var(--color3, #e6533c)"/></symbol><symbol id="circle-running-man" viewBox="0 0 32 32"><path fill="#efa082" d="M32 16c0 8.837-7.163 16-16 16S0 24.837 0 16 7.163 0 16 0s16 7.163 16 16z" style="fill:var(--color4, #efa082)"/><path fill="#efede8" d="M25.097 11.633a.79.79 0 0 0-1.112-.098l.001-.001-2.188 1.837-1.007-2.493a.786.786 0 0 0-.152-.24 2.156 2.156 0 0 0-1.042-1.073l-.013-.006a2.12 2.12 0 0 0-.645-.173l-.009-.001c-.049-.027-.093-.06-.148-.077l-3.851-1.073a.79.79 0 0 0-.614.086l.004-.002a.775.775 0 0 0-.478.443l-.002.005-1.449 3.728a.792.792 0 0 0 .445 1.021l.005.002a.791.791 0 0 0 1.02-.448l.002-.005 1.224-3.147 1.753.487c-.043.069-.088.133-.123.208l-2.249 4.873c-.032.072-.049.144-.072.219l-2.733 4.58-4.571 1.529a1.169 1.169 0 1 0 1.389 1.878l-.003.002 4.68-1.612c.135-.103.244-.232.321-.38l.003-.006c.06-.063.127-.112.172-.189l1.628-2.731 2.892 2.464-3.093 3.485a1.167 1.167 0 1 0 1.746 1.548l.001-.002 3.861-4.349a1.14 1.14 0 0 0 .24-.449c.029-.088.029-.18.036-.271 0-.047.017-.088.013-.131a1.142 1.142 0 0 0-.398-.848l-.002-.001-2.66-2.268c.191-.183.355-.4.472-.656l1.724-3.733.552 1.472a.728.728 0 0 0 .456.577l.005.002.04.009a.742.742 0 0 0 .494.023l-.005.001h.004c.024-.007.048-.003.072-.013a.794.794 0 0 0 .31-.225l.001-.001 3.141-2.663c.333-.28.193-.777-.088-1.112zm-3.972-1.898a2.201 2.201 0 0 0 0-4.402 2.201 2.201 0 0 0 0 4.402z" style="fill:var(--color2, #efede8)"/></symbol><symbol id="arrow-back" viewBox="0 0 32 32"><path fill="none" stroke="#efede8" stroke-linecap="round" stroke-linejoin="round" stroke-width="2.6" d="M17 28 4 15m0 0L17 2M4 15h26" style="stroke:var(--color2, #efede8)"/></symbol><symbol id="arrow" viewBox="0 0 32 32"><path fill="none" stroke="#e6533c" stroke-linecap="round" stroke-linejoin="round" stroke-width="2.6" d="m15 28 13-13m0 0L15 2m13 13H2" style="stroke:var(--color3, #e6533c)"/></symbol><symbol id="white-logo" viewBox="0 0 286 32"><path fill="#efede8" d="M80.941 13.714c1.04 0 1.882.843 1.882 1.882v.807c0 1.04-.843 1.882-1.882 1.882H78.79a1.883 1.883 0 0 0-1.882 1.882v5.378c0 1.04-.843 1.882-1.882 1.882h-2.151c-1.04 0-1.882.843-1.882 1.882v.807c0 1.04-.843 1.882-1.882 1.882h-5.109a1.882 1.882 0 0 1-1.882-1.882v-9.95c0-1.04-.843-1.882-1.882-1.882H22.591c-1.04 0-1.882.843-1.882 1.882v9.95c0 1.04-.843 1.882-1.882 1.882h-5.109a1.882 1.882 0 0 1-1.882-1.882v-.807c0-1.04-.843-1.882-1.882-1.882H7.803a1.882 1.882 0 0 1-1.882-1.882v-5.378c0-1.04-.843-1.882-1.882-1.882H1.888a1.882 1.882 0 0 1-1.882-1.882v-.807c0-1.04.843-1.882 1.882-1.882h2.151c1.04 0 1.882-.843 1.882-1.882V6.454c0-1.04.843-1.882 1.882-1.882h2.151c1.04 0 1.882-.843 1.882-1.882v-.807c0-1.04.843-1.882 1.882-1.882h5.109c1.04 0 1.882.843 1.882 1.882v9.95c0 1.04.843 1.882 1.882 1.882h37.647c1.04 0 1.882-.843 1.882-1.882v-9.95c0-1.04.843-1.882 1.882-1.882h5.109c1.04 0 1.882.843 1.882 1.882v.807c0 1.04.843 1.882 1.882 1.882h2.151c1.04 0 1.882.843 1.882 1.882v5.378c0 1.04.843 1.882 1.882 1.882h2.151zM97.882 29.873V3.52h9.412c1.431 0 2.723.358 3.878 1.073 1.167.715 2.089 1.675 2.767 2.88s1.016 2.529 1.016 3.972c0 1.481-.351 2.824-1.054 4.028a8.007 8.007 0 0 1-2.786 2.861 7.27 7.27 0 0 1-3.821 1.054h-4.819v10.485h-4.593zm4.593-15.077h4.329c.653 0 1.249-.163 1.788-.489s.966-.765 1.28-1.318a3.56 3.56 0 0 0 .489-1.845 3.6 3.6 0 0 0-.489-1.864c-.314-.552-.74-.991-1.28-1.318s-1.136-.489-1.788-.489h-4.329v7.322zM125.393 30.363c-1.732 0-3.313-.445-4.744-1.336a10.019 10.019 0 0 1-3.407-3.576c-.841-1.506-1.261-3.169-1.261-4.988 0-1.38.245-2.667.734-3.859a10.07 10.07 0 0 1 2.014-3.162c.866-.916 1.87-1.631 3.012-2.146s2.359-.772 3.652-.772c1.732 0 3.307.446 4.725 1.336a9.765 9.765 0 0 1 3.407 3.595c.853 1.506 1.28 3.175 1.28 5.007 0 1.368-.245 2.648-.734 3.84s-1.167 2.246-2.033 3.162a9.351 9.351 0 0 1-2.993 2.127 8.696 8.696 0 0 1-3.652.772zm0-4.593c.916 0 1.738-.245 2.466-.734s1.299-1.136 1.713-1.939c.427-.803.64-1.681.64-2.635 0-.979-.219-1.87-.659-2.673a5.03 5.03 0 0 0-1.751-1.939 4.229 4.229 0 0 0-2.409-.734c-.904 0-1.719.245-2.447.734s-1.305 1.142-1.732 1.958c-.427.816-.64 1.7-.64 2.654 0 .991.22 1.889.659 2.692s1.023 1.443 1.751 1.92a4.455 4.455 0 0 0 2.409.696zM146.566 29.873h-4.555l-6.287-18.823h4.499l4.085 12.179 4.066-12.179h4.536l4.066 12.179 4.085-12.179h4.499l-6.287 18.823h-4.555l-4.085-12.235-4.066 12.235zM175.907 30.363c-1.732 0-3.313-.445-4.744-1.336-1.418-.891-2.554-2.089-3.407-3.595-.841-1.506-1.261-3.169-1.261-4.988 0-1.368.245-2.648.734-3.84a10.07 10.07 0 0 1 2.014-3.162c.866-.916 1.87-1.631 3.012-2.146s2.359-.772 3.652-.772c1.468 0 2.811.314 4.028.941 1.23.615 2.271 1.462 3.125 2.541s1.474 2.309 1.864 3.689c.389 1.38.477 2.823.264 4.329h-13.76c.176.703.464 1.336.866 1.901.401.552.91.998 1.525 1.336.615.326 1.311.496 2.089.508a4.054 4.054 0 0 0 2.184-.565 5.087 5.087 0 0 0 1.656-1.619l4.687 1.092a10.073 10.073 0 0 1-3.426 4.104c-1.518 1.054-3.219 1.581-5.101 1.581zm-4.63-11.784h9.261a4.772 4.772 0 0 0-.885-2.033c-.439-.615-.985-1.104-1.638-1.468s-1.355-.546-2.108-.546-1.449.182-2.089.546a5.018 5.018 0 0 0-1.638 1.449 5.318 5.318 0 0 0-.904 2.052zM188.269 29.873l-.019-18.823h4.593l.019 1.675a6.92 6.92 0 0 1 2.296-1.6 6.913 6.913 0 0 1 2.88-.602c.689 0 1.38.1 2.071.301l-1.807 4.631a3.882 3.882 0 0 0-1.431-.282 3.91 3.91 0 0 0-2.033.546 4.002 4.002 0 0 0-1.449 1.449 3.917 3.917 0 0 0-.527 2.014v10.692h-4.593zM202.221 29.873V3.52h9.412c1.431 0 2.722.358 3.878 1.073 1.167.715 2.089 1.675 2.767 2.88s1.016 2.529 1.016 3.972c0 1.481-.352 2.824-1.054 4.028a8.015 8.015 0 0 1-2.786 2.861 7.27 7.27 0 0 1-3.821 1.054h-4.819v10.485h-4.593zm4.593-15.077h4.329c.651 0 1.248-.163 1.788-.489a3.589 3.589 0 0 0 1.28-1.318 3.56 3.56 0 0 0 .489-1.845 3.61 3.61 0 0 0-.489-1.864 3.604 3.604 0 0 0-1.28-1.318 3.396 3.396 0 0 0-1.788-.489h-4.329v7.322zM221.248 22.908V11.049h4.593v10.654c0 .741.181 1.418.546 2.033a4.205 4.205 0 0 0 1.449 1.449 3.99 3.99 0 0 0 2.014.527c.753 0 1.431-.176 2.033-.527a4.248 4.248 0 0 0 1.449-1.449 3.925 3.925 0 0 0 .546-2.033V11.049h4.593l.019 18.824h-4.595l-.017-1.713a7.416 7.416 0 0 1-2.315 1.619 7.077 7.077 0 0 1-2.861.584c-1.368 0-2.618-.332-3.748-.998a7.852 7.852 0 0 1-2.709-2.692c-.666-1.129-.998-2.384-.998-3.765zM242.368 29.873V1.638h4.593v28.235h-4.593zM257.039 30.212a10.38 10.38 0 0 1-2.842-.584 8.411 8.411 0 0 1-2.409-1.374 5.87 5.87 0 0 1-1.619-2.071l3.878-1.656c.151.251.395.521.734.809.339.276.74.508 1.205.696a4.22 4.22 0 0 0 1.562.282c.476 0 .928-.063 1.355-.188.439-.138.791-.345 1.054-.621.275-.276.414-.634.414-1.073 0-.464-.164-.822-.489-1.073-.314-.264-.715-.458-1.205-.584a37.86 37.86 0 0 0-1.393-.376 13.641 13.641 0 0 1-3.332-1.111c-1.016-.502-1.839-1.148-2.466-1.939-.616-.803-.922-1.769-.922-2.899 0-1.242.326-2.315.979-3.219a6.57 6.57 0 0 1 2.579-2.089 8.159 8.159 0 0 1 3.445-.734c1.493 0 2.861.314 4.104.941 1.254.615 2.246 1.487 2.974 2.616l-3.633 2.146a3.063 3.063 0 0 0-.734-.828 3.986 3.986 0 0 0-1.073-.64 3.644 3.644 0 0 0-1.261-.301 5.032 5.032 0 0 0-1.544.151c-.465.125-.841.339-1.129.64-.277.301-.414.703-.414 1.205 0 .477.188.834.565 1.073.376.226.828.402 1.355.527.538.125 1.054.264 1.544.414a18.8 18.8 0 0 1 3.106 1.336c.979.527 1.762 1.173 2.353 1.939.589.766.872 1.682.847 2.748 0 1.217-.365 2.284-1.092 3.2-.728.904-1.67 1.594-2.824 2.071-1.143.477-2.366.665-3.671.565zM275.834 30.363c-1.732 0-3.313-.445-4.744-1.336-1.419-.891-2.554-2.089-3.407-3.595-.841-1.506-1.261-3.169-1.261-4.988 0-1.368.245-2.648.734-3.84a10.052 10.052 0 0 1 2.014-3.162 9.447 9.447 0 0 1 3.012-2.146 8.776 8.776 0 0 1 3.652-.772c1.468 0 2.81.314 4.028.941a9.185 9.185 0 0 1 3.125 2.541 10.474 10.474 0 0 1 1.864 3.689c.388 1.38.476 2.823.264 4.329h-13.76c.175.703.463 1.336.866 1.901.401.552.909.998 1.525 1.336.614.326 1.31.496 2.089.508a4.059 4.059 0 0 0 2.184-.565 5.107 5.107 0 0 0 1.656-1.619l4.687 1.092a10.08 10.08 0 0 1-3.426 4.104c-1.519 1.054-3.219 1.581-5.101 1.581zm-4.63-11.784h9.261a4.784 4.784 0 0 0-.885-2.033 4.972 4.972 0 0 0-1.638-1.468c-.653-.364-1.355-.546-2.108-.546s-1.449.182-2.089.546a5.018 5.018 0 0 0-1.638 1.449 5.288 5.288 0 0 0-.904 2.052z" style="fill:var(--color2, #efede8)"/></symbol><symbol id="pause" viewBox="0 0 32 32"><path fill="#e6533c" stroke="#e6533c" stroke-linecap="round" stroke-linejoin="round" d="M4 10.4c0-2.24 0-3.36.436-4.216a3.991 3.991 0 0 1 1.748-1.748C7.04 4 8.16 4 10.4 4h11.2c2.24 0 3.36 0 4.216.436a3.996 3.996 0 0 1 1.748 1.748C28 7.04 28 8.16 28 10.4v11.2c0 2.24 0 3.36-.436 4.216a4.001 4.001 0 0 1-1.748 1.748C24.96 28 23.84 28 21.6 28H10.4c-2.24 0-3.36 0-4.216-.436a3.996 3.996 0 0 1-1.748-1.748C4 24.96 4 23.84 4 21.6V10.4z" style="fill:var(--color3, #e6533c);stroke:var(--color3, #e6533c)"/><path fill="none" stroke="#efede8" stroke-linecap="round" stroke-linejoin="round" stroke-width="1.3" d="M12.666 20v-8m6.667 8v-8" style="stroke:var(--color2, #efede8)"/></symbol><symbol id="play" viewBox="0 0 32 32"><path fill="#e6533c" stroke="#e6533c" stroke-linecap="round" stroke-linejoin="round" d="M4 10.4c0-2.24 0-3.36.436-4.216a3.991 3.991 0 0 1 1.748-1.748C7.04 4 8.16 4 10.4 4h11.2c2.24 0 3.36 0 4.216.436a3.996 3.996 0 0 1 1.748 1.748C28 7.04 28 8.16 28 10.4v11.2c0 2.24 0 3.36-.436 4.216a4.001 4.001 0 0 1-1.748 1.748C24.96 28 23.84 28 21.6 28H10.4c-2.24 0-3.36 0-4.216-.436a3.996 3.996 0 0 1-1.748-1.748C4 24.96 4 23.84 4 21.6V10.4z" style="fill:var(--color3, #e6533c);stroke:var(--color3, #e6533c)"/><path fill="#efede8" stroke="#efede8" stroke-linecap="round" stroke-linejoin="round" stroke-width="1.3" d="M11.917 10.75 20.084 16l-8.167 5.25v-10.5z" style="fill:var(--color2, #efede8);stroke:var(--color2, #efede8)"/></symbol><symbol id="log-out" viewBox="0 0 32 32"><path fill="none" stroke="#e6533c" stroke-linecap="round" stroke-linejoin="round" stroke-width="2.4" d="M12 4h-1.6c-2.24 0-3.36 0-4.216.436a3.991 3.991 0 0 0-1.748 1.748C4 7.04 4 8.16 4 10.4v11.2c0 2.24 0 3.36.436 4.216a3.996 3.996 0 0 0 1.748 1.748C7.04 28 8.16 28 10.4 28H12M21.333 22.667 28 16m0 0-6.667-6.667M28 16H12" style="stroke:var(--color3, #e6533c)"/></symbol><symbol id="warning" viewBox="0 0 32 32"><path fill="#efa082" d="M32 16c0 8.837-7.163 16-16 16S0 24.837 0 16 7.163 0 16 0s16 7.163 16 16z" style="fill:var(--color4, #efa082)"/><path fill="none" stroke="#efede8" stroke-linecap="round" stroke-linejoin="round" stroke-width="2.667" d="M16 25.333v.013M16 20V6.667" style="stroke:var(--color2, #efede8)"/></symbol><symbol id="settings" viewBox="0 0 32 32"><path fill="none" stroke="#efede8" stroke-linecap="round" stroke-linejoin="round" stroke-width="2.286" d="M16 20a4 4 0 1 0 0-8 4 4 0 0 0 0 8z" style="stroke:var(--color2, #efede8)"/><path fill="none" stroke="#efede8" stroke-linecap="round" stroke-linejoin="round" stroke-width="2.286" d="M24.969 19.636a2.005 2.005 0 0 0 .4 2.206l.073.073a2.422 2.422 0 0 1 0 3.43 2.432 2.432 0 0 1-1.715.711 2.42 2.42 0 0 1-1.715-.711l-.073-.073a2 2 0 0 0-2.206-.4 1.997 1.997 0 0 0-1.213 1.83v.206a2.421 2.421 0 0 1-2.424 2.424 2.421 2.421 0 0 1-2.424-2.424v-.109a1.996 1.996 0 0 0-1.309-1.831 2.005 2.005 0 0 0-2.206.4l-.073.073a2.422 2.422 0 0 1-3.43 0 2.432 2.432 0 0 1-.711-1.715 2.42 2.42 0 0 1 .711-1.715l.073-.073a2 2 0 0 0 .4-2.206c-.154-.358-.409-.664-.734-.88s-.706-.331-1.096-.332h-.206a2.421 2.421 0 0 1-2.424-2.424 2.421 2.421 0 0 1 2.424-2.424H5.2a1.996 1.996 0 0 0 1.831-1.309 1.997 1.997 0 0 0-.4-2.206l-.073-.073a2.422 2.422 0 0 1 0-3.43 2.422 2.422 0 0 1 3.43 0l.073.073a2.004 2.004 0 0 0 2.206.4h.097a1.997 1.997 0 0 0 1.213-1.83v-.206a2.421 2.421 0 0 1 2.424-2.424 2.421 2.421 0 0 1 2.424 2.424V5.2a2.005 2.005 0 0 0 1.212 1.83 2.005 2.005 0 0 0 2.206-.4l.073-.073a2.432 2.432 0 0 1 1.715-.711 2.42 2.42 0 0 1 1.715.711 2.428 2.428 0 0 1 0 3.43l-.073.073a2.004 2.004 0 0 0-.4 2.206v.097c.154.358.409.664.734.88s.706.331 1.096.332h.206a2.421 2.421 0 0 1 2.424 2.424 2.421 2.421 0 0 1-2.424 2.424H26.8a2.005 2.005 0 0 0-1.83 1.212z" style="stroke:var(--color2, #efede8)"/></symbol><symbol id="x-white" viewBox="0 0 32 32"><path fill="none" stroke="#efede8" stroke-linecap="round" stroke-linejoin="round" stroke-width="2" d="M24 8 8 24M8 8l16 16" style="stroke:var(--color2, #efede8)"/></symbol><symbol id="log-out-white" viewBox="0 0 32 32"><path fill="none" stroke="#efede8" stroke-linecap="round" stroke-linejoin="round" stroke-width="2.4" d="M12 4h-1.6c-2.24 0-3.36 0-4.216.436a3.991 3.991 0 0 0-1.748 1.748C4 7.04 4 8.16 4 10.4v11.2c0 2.24 0 3.36.436 4.216a3.996 3.996 0 0 0 1.748 1.748C7.04 28 8.16 28 10.4 28H12M21.333 22.667 28 16m0 0-6.667-6.667M28 16H12" style="stroke:var(--color2, #efede8)"/></symbol><symbol id="play-log" viewBox="0 0 27 32"><path fill="#efede8" d="M26.667 16 0 31.396V.604L26.667 16z" style="fill:var(--color2, #efede8)"/></symbol><symbol id="apple" viewBox="0 0 32 32"><path fill="#ef8964" d="M19.454 4.758a.794.794 0 0 0 .479-.399.798.798 0 0 0-.672-1.166.798.798 0 0 0-.314.048c-1.501.499-2.435 1.731-2.986 3.051a8.02 8.02 0 0 0-.203.542 6.394 6.394 0 0 0-1.138-1.541 6.39 6.39 0 0 0-4.705-1.872 1.74 1.74 0 0 0-1.694 1.694 6.39 6.39 0 0 0 1.872 4.705l.05.048a6.401 6.401 0 0 0-5.027 5.747l-.01.118a13.6 13.6 0 0 0 1.616 7.597l.576 1.053a.979.979 0 0 0 .051.08l1.6 2.243a4.301 4.301 0 0 0 3.142 1.785 4.297 4.297 0 0 0 3.392-1.244.743.743 0 0 1 .516-.214.72.72 0 0 1 .516.214 4.299 4.299 0 0 0 5.16.698 4.28 4.28 0 0 0 1.374-1.239l1.6-2.242a.625.625 0 0 0 .051-.082l.574-1.053a13.598 13.598 0 0 0 1.616-7.597l-.008-.118a6.386 6.386 0 0 0-2.442-4.533 6.404 6.404 0 0 0-4.99-1.268l-2.651.442c.016-1.09.208-2.315.638-3.349.448-1.08 1.114-1.848 2.013-2.149h.002zm-8.4 9.6a1.955 1.955 0 0 0-1.147.968c-.296.557-.499 1.475-.312 2.974a.8.8 0 0 1-1.587.198c-.213-1.702-.016-2.984.488-3.926a3.551 3.551 0 0 1 2.053-1.733.791.791 0 0 1 .858.235.814.814 0 0 1 .194.581.791.791 0 0 1-.274.548.814.814 0 0 1-.271.155z" style="fill:var(--color1, #ef8964)"/></symbol><symbol id="bubble" viewBox="0 0 32 32"><path fill="#ef8964" d="M20.793 16.346c3.778 0 6.84-3.062 6.84-6.84s-3.062-6.84-6.84-6.84-6.84 3.062-6.84 6.84 3.062 6.84 6.84 6.84zM8.476 25.919a4.107 4.107 0 1 0 0-8.215 4.107 4.107 0 0 0 0 8.215zM22.151 29.332a3.413 3.413 0 1 0 0-6.826 3.413 3.413 0 0 0 0 6.826z" style="fill:var(--color1, #ef8964)"/></symbol><symbol id="dumbbell" viewBox="0 0 46 32"><path fill="#ef8964" d="M7.429 4.571H4a1.71 1.71 0 0 0-1.714 1.714v7.429H.572a.573.573 0 0 0-.571.571v3.429c0 .314.257.571.571.571h1.714v7.429c0 .95.764 1.714 1.714 1.714h3.429a1.71 1.71 0 0 0 1.714-1.714V6.285a1.71 1.71 0 0 0-1.714-1.714zm37.714 9.143h-1.714V6.285a1.71 1.71 0 0 0-1.714-1.714h-3.429a1.71 1.71 0 0 0-1.714 1.714v19.429c0 .95.764 1.714 1.714 1.714h3.429a1.71 1.71 0 0 0 1.714-1.714v-7.429h1.714a.573.573 0 0 0 .571-.571v-3.429a.573.573 0 0 0-.571-.571zM32.571 0h-3.429a1.71 1.71 0 0 0-1.714 1.714v12h-9.143v-12A1.71 1.71 0 0 0 16.571 0h-3.429a1.71 1.71 0 0 0-1.714 1.714v28.571c0 .95.764 1.714 1.714 1.714h3.429a1.71 1.71 0 0 0 1.714-1.714v-12h9.143v12c0 .95.764 1.714 1.714 1.714h3.429a1.71 1.71 0 0 0 1.714-1.714V1.714A1.71 1.71 0 0 0 32.571 0z" style="fill:var(--color1, #ef8964)"/></symbol><symbol id="fire" viewBox="0 0 32 32"><path fill="#ef8964" d="M16.001 22.291c-.946.72-2.898 2.5-2.898 4.925 0 1.601 1.3 2.904 2.897 2.904s2.897-1.303 2.897-2.904c0-2.297-1.954-4.161-2.895-4.925z" style="fill:var(--color1, #ef8964)"/><path fill="#ef8964" d="M22.789 5.57a.936.936 0 0 0-1.34-.064l-4.412 4.117V1c0-.722-.87-1.261-1.522-.867-.123.075-3.055 1.865-6.017 5.116-3.602 3.953-6.055 8.766-6.055 14.164C3.443 26.354 9.076 32 16 32c-2.631 0-4.772-2.146-4.772-4.784 0-4.262 4.138-6.786 4.314-6.891a.938.938 0 0 1 .996.022c.173.114 4.234 2.838 4.234 6.869C20.772 29.854 18.631 32 16 32c6.924 0 12.557-5.647 12.557-12.587 0-5.241-2.313-9.938-5.767-13.843z" style="fill:var(--color1, #ef8964)"/></symbol><symbol id="food" viewBox="0 0 32 32"><path fill="#ef8964" d="M24 4a1.332 1.332 0 0 1 1.324 1.177l.009.156v21.333a1.333 1.333 0 0 1-2.657.157l-.009-.156V20h-1.333a1.333 1.333 0 0 1-1.324-1.177l-.009-.156v-8c0-2.947 2-6.667 4-6.667zm-8 0a1.332 1.332 0 0 1 1.324 1.177l.009.156V12a5.333 5.333 0 0 1-4 5.165v9.501a1.336 1.336 0 0 1-2.189 1.022 1.332 1.332 0 0 1-.468-.865l-.009-.156v-9.501a5.331 5.331 0 0 1-3.994-4.89l-.007-.275V5.334a1.336 1.336 0 0 1 2.189-1.021c.261.219.428.528.468.865l.009.156v6.667a2.665 2.665 0 0 0 1.333 2.309V5.334a1.336 1.336 0 0 1 2.189-1.021c.261.219.428.528.468.865l.009.156.001 8.976a2.664 2.664 0 0 0 1.323-2.084l.009-.225V5.334A1.335 1.335 0 0 1 15.998 4z" style="fill:var(--color1, #ef8964)"/></symbol><symbol id="pulse-logo" viewBox="0 0 83 32"><path fill="#e6533c" d="M80.941 13.714c1.04 0 1.882.843 1.882 1.882v.807c0 1.04-.843 1.882-1.882 1.882H78.79a1.883 1.883 0 0 0-1.882 1.882v5.378c0 1.04-.843 1.882-1.882 1.882h-2.151c-1.04 0-1.882.843-1.882 1.882v.807c0 1.04-.843 1.882-1.882 1.882h-5.109a1.882 1.882 0 0 1-1.882-1.882v-9.95c0-1.04-.843-1.882-1.882-1.882H22.591c-1.04 0-1.882.843-1.882 1.882v9.95c0 1.04-.843 1.882-1.882 1.882h-5.109a1.882 1.882 0 0 1-1.882-1.882v-.807c0-1.04-.843-1.882-1.882-1.882H7.803a1.882 1.882 0 0 1-1.882-1.882v-5.378c0-1.04-.843-1.882-1.882-1.882H1.888a1.882 1.882 0 0 1-1.882-1.882v-.807c0-1.04.843-1.882 1.882-1.882h2.151c1.04 0 1.882-.843 1.882-1.882V6.454c0-1.04.843-1.882 1.882-1.882h2.151c1.04 0 1.882-.843 1.882-1.882v-.807c0-1.04.843-1.882 1.882-1.882h5.109c1.04 0 1.882.843 1.882 1.882v9.95c0 1.04.843 1.882 1.882 1.882h37.647c1.04 0 1.882-.843 1.882-1.882v-9.95c0-1.04.843-1.882 1.882-1.882h5.109c1.04 0 1.882.843 1.882 1.882v.807c0 1.04.843 1.882 1.882 1.882h2.151c1.04 0 1.882.843 1.882 1.882v5.378c0 1.04.843 1.882 1.882 1.882h2.151z" style="fill:var(--color3, #e6533c)"/></symbol><symbol id="running-man" viewBox="0 0 32 32"><path fill="#ef8964" d="M29.647 9.451a1.185 1.185 0 0 0-1.667-.149l-3.282 2.757-1.509-3.739a1.163 1.163 0 0 0-.229-.362 3.215 3.215 0 0 0-1.582-1.617 3.24 3.24 0 0 0-.982-.262c-.073-.038-.139-.088-.222-.114l-5.775-1.61a1.19 1.19 0 0 0-.917.125 1.155 1.155 0 0 0-.719.672l-2.175 5.592a1.188 1.188 0 0 0 .676 1.534 1.187 1.187 0 0 0 1.532-.678l1.837-4.722 2.63.731c-.064.104-.133.201-.185.312l-3.372 7.309c-.049.107-.075.217-.109.328l-4.098 6.871-6.859 2.294a1.751 1.751 0 0 0 2.081 2.819l7.018-2.417c.215-.156.371-.36.489-.58.088-.094.189-.168.256-.284l2.443-4.096 4.337 3.696-4.641 5.23a1.75 1.75 0 1 0 2.622 2.32l5.791-6.524a1.72 1.72 0 0 0 .36-.676c.043-.132.043-.269.054-.406 0-.069.026-.132.021-.196a1.72 1.72 0 0 0-.601-1.274l-3.991-3.403c.288-.274.532-.6.709-.983l2.585-5.599.828 2.206c.035.196.1.388.239.549.125.149.284.248.454.317.017.009.038.01.059.016.107.038.216.075.329.08.133.012.269-.005.405-.043l.005-.002c.036-.009.073-.002.109-.017a1.17 1.17 0 0 0 .466-.34l4.71-3.998c.501-.421.289-1.166-.132-1.667zM23.689 6.602a3.301 3.301 0 1 0 0-6.602 3.301 3.301 0 0 0 0 6.602z" style="fill:var(--color1, #ef8964)"/></symbol><symbol id="burger-menu" viewBox="0 0 46 32">
<path fill="none" stroke="#e6533c" style="stroke: var(--color1, #e6533c)" stroke-linejoin="round" stroke-linecap="round" stroke-miterlimit="4" stroke-width="4.5714" d="M2.286 16h27.429M2.286 2.286h41.143M2.286 29.714h41.143"></path></symbol>
<symbol id="line" viewBox="0 0 87 32">
<path stroke-linejoin="round" stroke-linecap="round" stroke-miterlimit="4" stroke-width="1.7297" d="M60.717 0.865c-20.169 0.292-64.211 3.812-59.502 21.728 4.232 12.649 64.534 9.932 79.413 0.414s-5.555-19.422-34.037-15.916"></path>
    </symbol><symbol id="add-avatar" viewBox="0 0 24 24"><path fill="#E6533C" d="m8.424.428 3.018.873c.339.098.698.098 1.038.002L15.61.41a1.882 1.882 0 0 1 2.167.907l1.635 2.986c.168.307.418.561.723.734l2.543 1.44a1.883 1.883 0 0 1 .869 2.198l-.88 2.82a1.882 1.882 0 0 0 0 1.115l.892 2.894a1.882 1.882 0 0 1-.849 2.18l-2.894 1.692c-.303.177-.55.436-.715.747l-1.348 2.553a1.882 1.882 0 0 1-2.145.941l-3.164-.835a1.883 1.883 0 0 0-.968.002l-3.043.815a1.882 1.882 0 0 1-2.174-.983l-1.341-2.709a1.883 1.883 0 0 0-.816-.834l-2.755-1.438a1.882 1.882 0 0 1-.944-2.17l.807-2.922c.089-.322.09-.661.004-.984L.377 8.405a1.882 1.882 0 0 1 .904-2.128l2.873-1.598c.321-.18.584-.449.754-.775l1.324-2.538A1.882 1.882 0 0 1 8.424.428Z"/><path stroke="#EFEDE8" stroke-linecap="round" stroke-linejoin="round" stroke-width="1.5" d="M12.25 7v10M7 12h10"/></symbol>
    <symbol id="avatar" viewBox="0 0 68 68">
    <path d="M34.5 0C39.0087 0 43.3327 1.79107 46.5208 4.97919C49.709 8.16731 51.5 12.4913 51.5 17C51.5 21.5087 49.709 25.8327 46.5208 29.0208C43.3327 32.209 39.0087 34 34.5 34C29.9913 34 25.6673 32.209 22.4792 29.0208C19.2911 25.8327 17.5 21.5087 17.5 17C17.5 12.4913 19.2911 8.16731 22.4792 4.97919C25.6673 1.79107 29.9913 0 34.5 0ZM34.5 68C34.5 68 68.5 68 68.5 59.5C68.5 49.3 51.925 38.25 34.5 38.25C17.075 38.25 0.5 49.3 0.5 59.5C0.5 68 34.5 68 34.5 68Z" fill="#EFEDE8" fill-opacity="0.1" />
    </symbol>
    <symbol id="checked" viewBox="0 0 14 14">
    <path d="M7.00065 13.6666C3.31865 13.6666 0.333984 10.6819 0.333984 6.99992C0.333984 3.31792 3.31865 0.333252 7.00065 0.333252C10.6827 0.333252 13.6673 3.31792 13.6673 6.99992C13.6673 10.6819 10.6827 13.6666 7.00065 13.6666ZM6.22998 9.98992L10.9433 5.27592L10.0007 4.33325L6.22998 8.10459L4.34398 6.21859L3.40132 7.16125L6.22998 9.98992Z" fill="#3CBF61" /></symbol>
    <symbol id="exclamation-mark" viewBox="0 0 2 16">
    <path d="M1 15V15.01M1 11V1" stroke="#EFEDE8" stroke-width="2" stroke-linecap="round" stroke-linejoin="round" /></symbol>
    <symbol id="date-picker" viewBox="0 0 18 18">
    <path fill="none" stroke="#efede8" style="stroke: var(--color1, #efede8)" stroke-linejoin="round" stroke-linecap="round" stroke-miterlimit="4" stroke-width="3.4167" d="M32.458 6.833h-23.917c-1.887 0-3.417 1.53-3.417 3.417v23.917c0 1.887 1.53 3.417 3.417 3.417h23.917c1.887 0 3.417-1.53 3.417-3.417v-23.917c0-1.887-1.53-3.417-3.417-3.417z"></path>
    <path fill="none" stroke="#efede8" style="stroke: var(--color1, #efede8)" stroke-linejoin="round" stroke-linecap="round" stroke-miterlimit="4" stroke-width="3.4167" d="M27.333 3.417v6.833"></path>
    <path fill="none" stroke="#efede8" style="stroke: var(--color1, #efede8)" stroke-linejoin="round" stroke-linecap="round" stroke-miterlimit="4" stroke-width="3.4167" d="M13.667 3.417v6.833"></path>
    <path fill="none" stroke="#efede8" style="stroke: var(--color1, #efede8)" stroke-linejoin="round" stroke-linecap="round" stroke-miterlimit="4" stroke-width="3.4167" d="M5.125 17.083h30.75"></path>
    </symbol>

    <symbol id="icon-Logo" viewBox="0 0 310 32">
<path fill="#e6533c" style="fill: var(--color1, #e6533c)" d="M86.327 13.714c1.269 0 2.288 1.023 2.288 2.286s-1.019 2.286-2.288 2.286h-1.577c-1.365 0-2.462 1.102-2.462 2.462v4.22c0 1.36-1.106 2.462-2.462 2.462h-1.586c-1.26 0-2.288 1.023-2.288 2.286s-1.019 2.286-2.279 2.286h-4.75c-1.356 0-2.462-1.102-2.462-2.462v-8.791c0-1.359-1.106-2.462-2.462-2.462h-39.385c-1.356 0-2.462 1.102-2.462 2.462v8.791c0 1.359-1.106 2.462-2.462 2.462h-4.75c-1.26 0-2.279-1.023-2.279-2.286s-1.029-2.286-2.288-2.286h-1.587c-1.356 0-2.462-1.102-2.462-2.462v-4.22c0-1.359-1.096-2.462-2.462-2.462h-1.577c-1.269 0-2.288-1.023-2.288-2.286s1.019-2.286 2.288-2.286h1.577c1.365 0 2.462-1.102 2.462-2.462v-4.22c0-1.36 1.106-2.462 2.462-2.462h1.587c1.26 0 2.288-1.023 2.288-2.286s1.019-2.286 2.279-2.286h4.75c1.356 0 2.462 1.102 2.462 2.462v8.791c0 1.359 1.106 2.462 2.462 2.462h39.385c1.356 0 2.462-1.102 2.462-2.462v-8.791c0-1.359 1.106-2.462 2.462-2.462h4.75c1.26 0 2.279 1.023 2.279 2.286s1.029 2.286 2.288 2.286h1.586c1.356 0 2.462 1.102 2.462 2.462v4.22c0 1.359 1.096 2.462 2.462 2.462h1.577z"></path>
<path fill="#efede8" style="fill: var(--color2, #efede8)" d="M263.98 30.266v-29.035h4.943v29.035h-4.943zM108.308 30.266v-27.099h10.144q1.683 0 3.125 0.585v0q0.539 0.218 1.048 0.518 1.039 0.608 1.837 1.445 0.654 0.682 1.144 1.516 0.423 0.718 0.683 1.492 0.414 1.227 0.414 2.593 0 1.51-0.5 2.834-0.25 0.678-0.635 1.308c-0.74 1.226-1.74 2.207-3 2.942q-0.769 0.44-1.587 0.701-1.202 0.383-2.529 0.383h-5.192v10.782h-4.952zM220.721 30.266v-27.099h10.144c1.538 0 2.933 0.368 4.173 1.103 1.26 0.736 2.25 1.723 2.981 2.962s1.096 2.6 1.096 4.084c0 1.523-0.375 2.903-1.135 4.142-0.74 1.226-1.74 2.207-3 2.942-1.26 0.723-2.635 1.084-4.115 1.084h-5.192v10.782h-4.952zM113.26 14.761h4.663c0.702 0 1.346-0.168 1.923-0.503 0.587-0.335 1.039-0.787 1.385-1.355s0.519-1.2 0.519-1.897c0-0.71-0.173-1.349-0.519-1.916s-0.798-1.019-1.385-1.355c-0.577-0.336-1.221-0.503-1.923-0.503h-4.663v7.53zM225.673 14.761h4.663c0.702 0 1.346-0.168 1.923-0.503 0.587-0.335 1.048-0.787 1.385-1.355 0.346-0.568 0.519-1.2 0.519-1.897 0-0.71-0.173-1.349-0.519-1.916-0.337-0.568-0.798-1.019-1.385-1.355-0.577-0.336-1.221-0.503-1.923-0.503h-4.663v7.53zM279.778 30.614c-1.049-0.064-2.068-0.265-3.057-0.6-0.972-0.349-1.836-0.819-2.597-1.413-0.758-0.594-1.337-1.304-1.74-2.129l4.175-1.703c0.162 0.258 0.421 0.535 0.788 0.832 0.364 0.284 0.798 0.523 1.297 0.716 0.519 0.193 1.078 0.29 1.684 0.29 0.519 0 0.999-0.064 1.462-0.193 0.47-0.142 0.854-0.355 1.135-0.639 0.298-0.284 0.45-0.652 0.45-1.104 0-0.477-0.182-0.845-0.529-1.103-0.335-0.271-0.768-0.471-1.297-0.6-0.519-0.142-1.019-0.271-1.499-0.387-1.29-0.245-2.481-0.626-3.589-1.142-1.095-0.516-1.979-1.181-2.663-1.994-0.662-0.826-0.99-1.82-0.99-2.981 0-1.278 0.347-2.381 1.058-3.31s1.634-1.645 2.779-2.148q0.308-0.135 0.625-0.246v-0.002q1.45-0.507 3.077-0.507c1.615 0 3.087 0.323 4.423 0.968 1.354 0.633 2.422 1.529 3.21 2.691l-3.924 2.207c-0.182-0.31-0.45-0.594-0.788-0.852-0.337-0.271-0.721-0.49-1.154-0.658-0.431-0.181-0.884-0.284-1.354-0.31-0.615-0.026-1.164 0.026-1.664 0.155s-0.903 0.349-1.221 0.658c-0.298 0.309-0.443 0.723-0.443 1.239 0 0.49 0.202 0.858 0.606 1.103 0.404 0.232 0.894 0.413 1.462 0.542 0.576 0.129 1.135 0.271 1.664 0.426 1.191 0.374 2.306 0.832 3.345 1.374 1.058 0.542 1.895 1.207 2.538 1.994q0.308 0.391 0.519 0.834 0.394 0.838 0.394 1.859c0 0.044 0 0.089-0.010 0.134 0 1.251-0.384 2.349-1.172 3.291-0.778 0.929-1.799 1.639-3.038 2.129-1.231 0.49-2.55 0.684-3.963 0.581zM137.952 30.769c-1.875 0-3.577-0.458-5.116-1.374-1.529-0.916-2.75-2.142-3.673-3.678q-0.471-0.806-0.779-1.671v0q-0.577-1.626-0.577-3.459 0-1.854 0.596-3.488v-0.001q0.096-0.242 0.192-0.479c0.529-1.239 1.25-2.323 2.173-3.252 0.933-0.942 2.010-1.678 3.24-2.207q0.49-0.208 0.991-0.361v-0q1.404-0.432 2.952-0.432c1.865 0 3.558 0.458 5.087 1.374 1.538 0.916 2.76 2.148 3.673 3.697q0.462 0.79 0.779 1.638 0.596 1.646 0.596 3.511c0 1.407-0.26 2.723-0.789 3.949s-1.26 2.31-2.192 3.252c-0.923 0.929-1.99 1.658-3.221 2.188-1.221 0.529-2.529 0.794-3.933 0.794zM192.375 30.769c-1.865
0-3.577-0.458-5.115-1.374-1.529-0.916-2.75-2.149-3.673-3.697-0.904-1.548-1.356-3.258-1.356-5.13 0-1.407 0.269-2.723 0.789-3.949 0.529-1.239 1.25-2.323 2.173-3.252 0.933-0.942 2.019-1.678 3.25-2.207 1.221-0.529 2.538-0.794 3.933-0.794 1.577 0 3.029 0.323 4.337 0.968q1.192 0.569 2.163 1.396 0.654 0.551 1.202 1.217c0.923 1.11 1.587 2.374 2.010 3.794 0.269 0.917 0.404 1.86 0.404 2.831 0 0.532-0.038 1.073-0.115 1.621h-14.827q0.202 0.772 0.587 1.436 0.154 0.269 0.346 0.52c0.433 0.568 0.981 1.026 1.644 1.374 0.654 0.335 1.413 0.51 2.25 0.523 0.865 0.013 1.644-0.181 2.346-0.581 0.721-0.413 1.317-0.968 1.788-1.665l5.048 1.123c-0.827 1.716-2.058 3.123-3.692 4.22q-0.981 0.653-2.067 1.043-1.606 0.582-3.423 0.582zM205.692 30.266l-0.019-19.357h4.942l0.019 1.723c0.692-0.697 1.519-1.245 2.481-1.645 0.962-0.413 1.99-0.619 3.096-0.619 0.75 0 1.49 0.103 2.231 0.31l-1.942 4.762c-0.51-0.194-1.029-0.29-1.538-0.29-0.798 0-1.529 0.187-2.192 0.561-0.654 0.361-1.173 0.858-1.558 1.49-0.385 0.619-0.577 1.31-0.577 2.071v10.995h-4.942zM300.030 30.769c-1.866 0-3.567-0.458-5.108-1.374-1.529-0.916-2.75-2.149-3.673-3.697-0.903-1.548-1.354-3.258-1.354-5.13 0-1.407 0.258-2.723 0.788-3.949 0.529-1.239 1.25-2.323 2.174-3.252 0.933-0.942 2.009-1.678 3.239-2.207s2.548-0.794 3.934-0.794q2.075 0 3.845 0.739v0.003q0.251 0.105 0.5 0.226c1.327 0.632 2.444 1.503 3.367 2.613s1.585 2.374 2.009 3.794c0.268 0.917 0.404 1.86 0.404 2.831 0 0.532-0.039 1.073-0.126 1.621h-14.826c0.192 0.723 0.51 1.374 0.943 1.955 0.431 0.568 0.97 1.026 1.634 1.374 0.662 0.335 1.413 0.51 2.25 0.523 0.864 0.013 1.654-0.181 2.356-0.581 0.721-0.413 1.317-0.968 1.787-1.665l5.049 1.123c-0.827 1.716-2.058 3.123-3.692 4.22-1.634 1.084-3.471 1.626-5.499 1.626zM160.76 30.266h-4.904l-6.779-19.357h4.846l4.404 12.524 4.375-12.524h4.894l4.375 12.524 4.404-12.524h4.846l-6.769 19.357h-4.913l-4.394-12.582-4.385 12.582zM241.221 23.104v-12.195h4.952v10.956c0 0.761 0.192 1.458 0.586 2.090 0.394 0.62 0.913 1.116 1.558 1.491q0.347 0.186 0.711 0.308 0.692 0.233 1.462 0.233c0.807 0 1.538-0.18 2.191-0.542 0.645-0.374 1.164-0.871 1.558-1.491 0.394-0.632 0.586-1.329 0.586-2.090v-10.956h4.953l0.020 19.357h-4.953l-0.020-1.761c-0.702 0.697-1.529 1.252-2.489 1.665-0.962 0.4-1.991 0.6-3.087 0.6-1.472 0-2.818-0.342-4.029-1.026-1.221-0.697-2.192-1.62-2.923-2.768-0.721-1.161-1.077-2.452-1.077-3.871zM187.385 18.652h9.981q-0.115-0.585-0.356-1.111-0.24-0.518-0.606-0.98c-0.471-0.632-1.058-1.136-1.76-1.51s-1.461-0.561-2.269-0.561c-0.817 0-1.567 0.187-2.25 0.561-0.692 0.361-1.279 0.858-1.769 1.491-0.471 0.619-0.798 1.323-0.971 2.11zM295.047 18.652h9.972q-0.106-0.585-0.347-1.111-0.239-0.518-0.606-0.979-0.318-0.432-0.721-0.784-0.47-0.42-1.039-0.726c-0.702-0.374-1.46-0.561-2.277-0.561-0.807 0-1.558 0.187-2.25 0.561-0.684 0.361-1.28 0.858-1.76 1.491-0.473 0.619-0.798 1.323-0.972 2.11zM137.952 26.046c0.981 0 1.865-0.252 2.654-0.755 0.779-0.503 1.394-1.168 1.846-1.994 0.462-0.826 0.683-1.729 0.683-2.71 0-1.006-0.231-1.923-0.702-2.748-0.462-0.839-1.096-1.503-1.885-1.994q-0.539-0.34-1.116-0.527-0.702-0.228-1.481-0.228c-0.981 0-1.856 0.252-2.644 0.755-0.779 0.503-1.404 1.174-1.866 2.013q-0.269 0.502-0.433 1.037-0.25 0.808-0.25 1.693c0 1.020 0.231 1.942 0.702 2.768 0.481 0.826 1.106 1.484 1.894 1.974q0.577 0.35 1.212 0.528 0.663 0.188 1.385 0.188z"></path>
</symbol><symbol id="icon-Icon" viewBox="0 0 46 32">
<path stroke-linejoin="round" stroke-linecap="butt" stroke-miterlimit="4" stroke-width="4.5714" d="M2.286 16h27.429M2.286 2.286h41.143M2.286 29.714h41.143"></path>
</symbol>
    <symbol id="icon-Polygon-1" viewBox="0 0 28 32">
<path fill="#efede8" style="fill: var(--color1, #efede8)" d="M27.713 16l-27.713-16v32l27.713-16z"></path>
</symbol>
<symbol id="icon-Group" viewBox="0 0 28 32">
<path fill="#efede8" style="fill: var(--color1, #efede8)" d="M27.719 9.451c-0.422-0.501-1.168-0.567-1.668-0.149l-3.281 2.757-1.512-3.739c-0.051-0.14-0.133-0.258-0.227-0.362-0.309-0.686-0.844-1.275-1.582-1.617-0.32-0.146-0.652-0.224-0.984-0.262-0.070-0.038-0.137-0.088-0.223-0.114l-5.774-1.61c-0.324-0.088-0.648-0.031-0.918 0.125-0.316 0.107-0.59 0.338-0.719 0.672l-2.176 5.592c-0.234 0.608 0.066 1.294 0.676 1.534 0.609 0.236 1.297-0.068 1.535-0.678l1.836-4.722 2.629 0.731c-0.063 0.104-0.133 0.201-0.184 0.312l-3.375 7.309c-0.047 0.107-0.074 0.217-0.105 0.328l-4.102 6.871-6.856 2.294c-0.777 0.581-0.941 1.674-0.367 2.45 0.574 0.778 1.672 0.943 2.445 0.369l7.020-2.417c0.215-0.156 0.371-0.361 0.488-0.581 0.090-0.094 0.188-0.168 0.258-0.284l2.441-4.096 4.34 3.696-4.641 5.23c-0.641 0.721-0.578 1.832 0.148 2.469 0.723 0.643 1.828 0.575 2.473-0.149l5.789-6.524c0.18-0.201 0.289-0.433 0.363-0.676 0.043-0.132 0.043-0.269 0.051-0.405 0-0.069 0.027-0.132 0.023-0.196-0.016-0.478-0.211-0.943-0.602-1.274l-3.992-3.403c0.289-0.274 0.531-0.6 0.707-0.983l2.586-5.599 0.828 2.206c0.035 0.196 0.101 0.388 0.242 0.549 0.125 0.149 0.281 0.248 0.453 0.317 0.016 0.009 0.039 0.011 0.059 0.016 0.105 0.038 0.215 0.075 0.328 0.080 0.133 0.012 0.269-0.005 0.406-0.043 0.004-0.002 0.004-0.002 0.004-0.002 0.039-0.009 0.074-0.002 0.109-0.017 0.195-0.073 0.34-0.196 0.469-0.34l4.707-3.998c0.504-0.421 0.289-1.166-0.129-1.667z"></path>
<path fill="#efede8" style="fill: var(--color1, #efede8)" d="M25.059 3.301c0 1.823-1.477 3.301-3.301 3.301s-3.301-1.478-3.301-3.301c0-1.823 1.477-3.301 3.301-3.301s3.301 1.478 3.301 3.301z"></path>
</symbol>
<symbol id="checkbox" viewBox="0 0 32 32">
<path d="M16 29.333c-7.364 0-13.333-5.969-13.333-13.333s5.969-13.333 13.333-13.333c7.364 0 13.333 5.969 13.333 13.333s-5.969 13.333-13.333 13.333zM14.459 21.98l9.427-9.428-1.885-1.885-7.541 7.543-3.772-3.772-1.885 1.885 5.657 5.657z"></path>
</symbol>
<symbol id="icon-eye-off" viewBox="0 0 32 32">
<path stroke-linejoin="round" stroke-linecap="round" stroke-miterlimit="4" stroke-width="2.88" d="M23.92 23.92c-2.279 1.737-5.055 2.7-7.92 2.747-9.333 0-14.667-10.667-14.667-10.667 1.659-3.091 3.959-5.791 6.747-7.92M13.2 5.653c0.918-0.215 1.857-0.322 2.8-0.32 9.333 0 14.667 10.667 14.667 10.667-0.809 1.514-1.775 2.94-2.88 4.253M18.827 18.827c-0.366 0.393-0.808 0.708-1.299 0.927s-1.020 0.336-1.557 0.346c-0.537 0.009-1.071-0.089-1.569-0.291s-0.95-0.501-1.33-0.88c-0.38-0.38-0.679-0.832-0.88-1.33s-0.3-1.032-0.29-1.569c0.009-0.537 0.127-1.067 0.346-1.558s0.534-0.932 0.927-1.298"></path>
<path stroke-linejoin="round" stroke-linecap="round" stroke-miterlimit="4" stroke-width="2.88" d="M1.333 1.333l29.333 29.333"></path>
</symbol>
<symbol id="icon-eye" viewBox="0 0 32 32">
<path stroke-linejoin="round" stroke-linecap="round" stroke-miterlimit="4" stroke-width="2.88" d="M1.333 16c0 0 5.333-10.667 14.667-10.667s14.667 10.667 14.667 10.667-5.333 10.667-14.667 10.667c-9.333 0-14.667-10.667-14.667-10.667z"></path>
<path stroke-linejoin="round" stroke-linecap="round" stroke-miterlimit="4" stroke-width="2.88" d="M16 20c2.209 0 4-1.791 4-4s-1.791-4-4-4c-2.209 0-4 1.791-4 4s1.791 4 4 4z"></path>
</symbol>
<symbol id="icon-Logo" viewBox="0 0 310 32">
<path fill="#e6533c" style="fill: var(--color1, #e6533c)" d="M86.327 13.714c1.269 0 2.288 1.023 2.288 2.286s-1.019 2.286-2.288 2.286h-1.577c-1.365 0-2.462 1.102-2.462 2.462v4.22c0 1.36-1.106 2.462-2.462 2.462h-1.586c-1.26 0-2.288 1.023-2.288 2.286s-1.019 2.286-2.279 2.286h-4.75c-1.356 0-2.462-1.102-2.462-2.462v-8.791c0-1.359-1.106-2.462-2.462-2.462h-39.385c-1.356 0-2.462 1.102-2.462 2.462v8.791c0 1.359-1.106 2.462-2.462 2.462h-4.75c-1.26 0-2.279-1.023-2.279-2.286s-1.029-2.286-2.288-2.286h-1.587c-1.356 0-2.462-1.102-2.462-2.462v-4.22c0-1.359-1.096-2.462-2.462-2.462h-1.577c-1.269 0-2.288-1.023-2.288-2.286s1.019-2.286 2.288-2.286h1.577c1.365 0 2.462-1.102 2.462-2.462v-4.22c0-1.36 1.106-2.462 2.462-2.462h1.587c1.26 0 2.288-1.023 2.288-2.286s1.019-2.286 2.279-2.286h4.75c1.356 0 2.462 1.102 2.462 2.462v8.791c0 1.359 1.106 2.462 2.462 2.462h39.385c1.356 0 2.462-1.102 2.462-2.462v-8.791c0-1.359 1.106-2.462 2.462-2.462h4.75c1.26 0 2.279 1.023 2.279 2.286s1.029 2.286 2.288 2.286h1.586c1.356 0 2.462 1.102 2.462 2.462v4.22c0 1.359 1.096 2.462 2.462 2.462h1.577z"></path>
<path fill="#efede8" style="fill: var(--color2, #efede8)" d="M263.98 30.266v-29.035h4.943v29.035h-4.943zM108.308 30.266v-27.099h10.144q1.683 0 3.125 0.585v0q0.539 0.218 1.048 0.518 1.039 0.608 1.837 1.445 0.654 0.682 1.144 1.516 0.423 0.718 0.683 1.492 0.414 1.227 0.414 2.593 0 1.51-0.5 2.834-0.25 0.678-0.635 1.308c-0.74 1.226-1.74 2.207-3 2.942q-0.769 0.44-1.587 0.701-1.202 0.383-2.529 0.383h-5.192v10.782h-4.952zM220.721 30.266v-27.099h10.144c1.538 0 2.933 0.368 4.173 1.103 1.26 0.736 2.25 1.723 2.981 2.962s1.096 2.6 1.096 4.084c0 1.523-0.375 2.903-1.135 4.142-0.74 1.226-1.74 2.207-3 2.942-1.26 0.723-2.635 1.084-4.115 1.084h-5.192v10.782h-4.952zM113.26 14.761h4.663c0.702 0 1.346-0.168 1.923-0.503 0.587-0.335 1.039-0.787 1.385-1.355s0.519-1.2 0.519-1.897c0-0.71-0.173-1.349-0.519-1.916s-0.798-1.019-1.385-1.355c-0.577-0.336-1.221-0.503-1.923-0.503h-4.663v7.53zM225.673 14.761h4.663c0.702 0 1.346-0.168 1.923-0.503 0.587-0.335 1.048-0.787 1.385-1.355 0.346-0.568 0.519-1.2 0.519-1.897 0-0.71-0.173-1.349-0.519-1.916-0.337-0.568-0.798-1.019-1.385-1.355-0.577-0.336-1.221-0.503-1.923-0.503h-4.663v7.53zM279.778 30.614c-1.049-0.064-2.068-0.265-3.057-0.6-0.972-0.349-1.836-0.819-2.597-1.413-0.758-0.594-1.337-1.304-1.74-2.129l4.175-1.703c0.162 0.258 0.421 0.535 0.788 0.832 0.364 0.284 0.798 0.523 1.297 0.716 0.519 0.193 1.078 0.29 1.684 0.29 0.519 0 0.999-0.064 1.462-0.193 0.47-0.142 0.854-0.355 1.135-0.639 0.298-0.284 0.45-0.652 0.45-1.104 0-0.477-0.182-0.845-0.529-1.103-0.335-0.271-0.768-0.471-1.297-0.6-0.519-0.142-1.019-0.271-1.499-0.387-1.29-0.245-2.481-0.626-3.589-1.142-1.095-0.516-1.979-1.181-2.663-1.994-0.662-0.826-0.99-1.82-0.99-2.981 0-1.278 0.347-2.381 1.058-3.31s1.634-1.645 2.779-2.148q0.308-0.135 0.625-0.246v-0.002q1.45-0.507 3.077-0.507c1.615 0 3.087 0.323 4.423 0.968 1.354 0.633 2.422 1.529 3.21 2.691l-3.924 2.207c-0.182-0.31-0.45-0.594-0.788-0.852-0.337-0.271-0.721-0.49-1.154-0.658-0.431-0.181-0.884-0.284-1.354-0.31-0.615-0.026-1.164 0.026-1.664 0.155s-0.903 0.349-1.221 0.658c-0.298 0.309-0.443 0.723-0.443 1.239 0 0.49 0.202 0.858 0.606 1.103 0.404 0.232 0.894 0.413 1.462 0.542 0.576 0.129 1.135 0.271 1.664 0.426 1.191 0.374 2.306 0.832 3.345 1.374 1.058 0.542 1.895 1.207 2.538 1.994q0.308 0.391 0.519 0.834 0.394 0.838 0.394 1.859c0 0.044 0 0.089-0.010 0.134 0 1.251-0.384 2.349-1.172 3.291-0.778 0.929-1.799 1.639-3.038 2.129-1.231 0.49-2.55 0.684-3.963 0.581zM137.952 30.769c-1.875 0-3.577-0.458-5.116-1.374-1.529-0.916-2.75-2.142-3.673-3.678q-0.471-0.806-0.779-1.671v0q-0.577-1.626-0.577-3.459 0-1.854 0.596-3.488v-0.001q0.096-0.242 0.192-0.479c0.529-1.239 1.25-2.323 2.173-3.252 0.933-0.942 2.010-1.678 3.24-2.207q0.49-0.208 0.991-0.361v-0q1.404-0.432 2.952-0.432c1.865 0 3.558 0.458 5.087 1.374 1.538 0.916 2.76 2.148 3.673 3.697q0.462 0.79 0.779 1.638 0.596 1.646 0.596 3.511c0 1.407-0.26 2.723-0.789 3.949s-1.26 2.31-2.192 3.252c-0.923 0.929-1.99 1.658-3.221 2.188-1.221 0.529-2.529 0.794-3.933 0.794zM192.375 30.769c-1.865
0-3.577-0.458-5.115-1.374-1.529-0.916-2.75-2.149-3.673-3.697-0.904-1.548-1.356-3.258-1.356-5.13 0-1.407 0.269-2.723 0.789-3.949 0.529-1.239 1.25-2.323 2.173-3.252 0.933-0.942 2.019-1.678 3.25-2.207 1.221-0.529 2.538-0.794 3.933-0.794 1.577 0 3.029 0.323 4.337 0.968q1.192 0.569 2.163 1.396 0.654 0.551 1.202 1.217c0.923 1.11 1.587 2.374 2.010 3.794 0.269 0.917 0.404 1.86 0.404 2.831 0 0.532-0.038 1.073-0.115 1.621h-14.827q0.202 0.772 0.587 1.436 0.154 0.269 0.346 0.52c0.433 0.568 0.981 1.026 1.644 1.374 0.654 0.335 1.413 0.51 2.25 0.523 0.865 0.013 1.644-0.181 2.346-0.581 0.721-0.413 1.317-0.968 1.788-1.665l5.048 1.123c-0.827 1.716-2.058 3.123-3.692 4.22q-0.981 0.653-2.067 1.043-1.606 0.582-3.423 0.582zM205.692 30.266l-0.019-19.357h4.942l0.019 1.723c0.692-0.697 1.519-1.245 2.481-1.645 0.962-0.413 1.99-0.619 3.096-0.619 0.75 0 1.49 0.103 2.231 0.31l-1.942 4.762c-0.51-0.194-1.029-0.29-1.538-0.29-0.798 0-1.529 0.187-2.192 0.561-0.654 0.361-1.173 0.858-1.558 1.49-0.385 0.619-0.577 1.31-0.577 2.071v10.995h-4.942zM300.030 30.769c-1.866 0-3.567-0.458-5.108-1.374-1.529-0.916-2.75-2.149-3.673-3.697-0.903-1.548-1.354-3.258-1.354-5.13 0-1.407 0.258-2.723 0.788-3.949 0.529-1.239 1.25-2.323 2.174-3.252 0.933-0.942 2.009-1.678 3.239-2.207s2.548-0.794 3.934-0.794q2.075 0 3.845 0.739v0.003q0.251 0.105 0.5 0.226c1.327 0.632 2.444 1.503 3.367 2.613s1.585 2.374 2.009 3.794c0.268 0.917 0.404 1.86 0.404 2.831 0 0.532-0.039 1.073-0.126 1.621h-14.826c0.192 0.723 0.51 1.374 0.943 1.955 0.431 0.568 0.97 1.026 1.634 1.374 0.662 0.335 1.413 0.51 2.25 0.523 0.864 0.013 1.654-0.181 2.356-0.581 0.721-0.413 1.317-0.968 1.787-1.665l5.049 1.123c-0.827 1.716-2.058 3.123-3.692 4.22-1.634 1.084-3.471 1.626-5.499 1.626zM160.76 30.266h-4.904l-6.779-19.357h4.846l4.404 12.524 4.375-12.524h4.894l4.375 12.524 4.404-12.524h4.846l-6.769 19.357h-4.913l-4.394-12.582-4.385 12.582zM241.221 23.104v-12.195h4.952v10.956c0 0.761 0.192 1.458 0.586 2.090 0.394 0.62 0.913 1.116 1.558 1.491q0.347 0.186 0.711 0.308 0.692 0.233 1.462 0.233c0.807 0 1.538-0.18 2.191-0.542 0.645-0.374 1.164-0.871 1.558-1.491 0.394-0.632 0.586-1.329 0.586-2.090v-10.956h4.953l0.020 19.357h-4.953l-0.020-1.761c-0.702 0.697-1.529 1.252-2.489 1.665-0.962 0.4-1.991 0.6-3.087 0.6-1.472 0-2.818-0.342-4.029-1.026-1.221-0.697-2.192-1.62-2.923-2.768-0.721-1.161-1.077-2.452-1.077-3.871zM187.385 18.652h9.981q-0.115-0.585-0.356-1.111-0.24-0.518-0.606-0.98c-0.471-0.632-1.058-1.136-1.76-1.51s-1.461-0.561-2.269-0.561c-0.817 0-1.567 0.187-2.25 0.561-0.692 0.361-1.279 0.858-1.769 1.491-0.471 0.619-0.798 1.323-0.971 2.11zM295.047 18.652h9.972q-0.106-0.585-0.347-1.111-0.239-0.518-0.606-0.979-0.318-0.432-0.721-0.784-0.47-0.42-1.039-0.726c-0.702-0.374-1.46-0.561-2.277-0.561-0.807 0-1.558 0.187-2.25 0.561-0.684 0.361-1.28 0.858-1.76 1.491-0.473 0.619-0.798 1.323-0.972 2.11zM137.952 26.046c0.981 0 1.865-0.252 2.654-0.755 0.779-0.503 1.394-1.168 1.846-1.994 0.462-0.826 0.683-1.729 0.683-2.71 0-1.006-0.231-1.923-0.702-2.748-0.462-0.839-1.096-1.503-1.885-1.994q-0.539-0.34-1.116-0.527-0.702-0.228-1.481-0.228c-0.981 0-1.856 0.252-2.644 0.755-0.779 0.503-1.404 1.174-1.866 2.013q-0.269 0.502-0.433 1.037-0.25 0.808-0.25 1.693c0 1.020 0.231 1.942 0.702 2.768 0.481 0.826 1.106 1.484 1.894 1.974q0.577 0.35 1.212 0.528 0.663 0.188 1.385 0.188z"></path>
</symbol><symbol id="icon-Icon" viewBox="0 0 46 32">
<path stroke-linejoin="round" stroke-linecap="butt" stroke-miterlimit="4" stroke-width="4.5714" d="M2.286 16h27.429M2.286 2.286h41.143M2.286 29.714h41.143"></path>
</symbol>
<symbol id="icon-arrow" viewBox="0 0 32 32">
<path fill="rgba(239, 237, 232, 0.3)" stroke="rgba(239, 237, 232, 0.3)" style="stroke: var(--color1, rgba(239, 237, 232, 0.3))" stroke-linejoin="round" stroke-linecap="round" stroke-miterlimit="4" stroke-width="2.6" d="M15 28l13-13M28 15l-13-13M28 15h-26"></path>
</symbol>
<symbol id="diary-back" viewBox="0 0 19 32">
<path d="M16.091 1.158l3.017 3.017-12.358 12.358 12.358 12.358-3.017 3.017-15.375-15.375 15.375-15.375z"></path>
</symbol>
<symbol id="diary-next" viewBox="0 0 19 32">
<path d="M3.109 31.909l-3.017-3.017 12.358-12.358-12.358-12.358 3.017-3.017 15.375 15.375-15.375 15.375z"></path>
</symbol>
<symbol id="calendar" viewBox="0 0 32 32">
<path fill="none" stroke="#ef8964" style="stroke: var(--color1, #ef8964)" stroke-linejoin="round" stroke-linecap="round" stroke-miterlimit="4" stroke-width="2.88" d="M25.333 5.333h-18.667c-1.473 0-2.667 1.194-2.667 2.667v18.667c0 1.473 1.194 2.667 2.667 2.667h18.667c1.473 0 2.667-1.194 2.667-2.667v-18.667c0-1.473-1.194-2.667-2.667-2.667z"></path>
<path fill="none" stroke="#ef8964" style="stroke: var(--color1, #ef8964)" stroke-linejoin="round" stroke-linecap="round" stroke-miterlimit="4" stroke-width="2.88" d="M21.331 2.667v5.333"></path>
<path fill="none" stroke="#ef8964" style="stroke: var(--color1, #ef8964)" stroke-linejoin="round" stroke-linecap="round" stroke-miterlimit="4" stroke-width="2.88" d="M10.669 2.667v5.333"></path>
<path fill="none" stroke="#ef8964" style="stroke: var(--color1, #ef8964)" stroke-linejoin="round" stroke-linecap="round" stroke-miterlimit="4" stroke-width="2.88" d="M4 13.333h24"></path>
</symbol>
</defs></svg>
