<svg xmlns="http://www.w3.org/2000/svg" aria-hidden="true" style="position:absolute;width:0;height:0;overflow:hidden"><defs><symbol id="trash-icon" viewBox="0 0 32 32"><path fill="none" stroke="#ef8964" stroke-linecap="round" stroke-linejoin="round" stroke-width="2.4" d="M12 4h8m-6.667 10v6.667M18.667 14v6.667M4 8h24m-2.667 0-.934 14.026c-.141 2.104-.211 3.157-.666 3.955a4.026 4.026 0 0 1-1.708 1.609l-.023.01c-.826.4-1.88.4-3.989.4h-4.026c-2.109 0-3.163 0-3.989-.4A4.031 4.031 0 0 1 8.277 26l-.01-.019c-.454-.8-.525-1.851-.666-3.955L6.667 8" style="stroke:var(--color1, #ef8964)"/></symbol><symbol id="search" viewBox="0 0 32 32"><path fill="none" stroke="#efede8" stroke-linecap="round" stroke-linejoin="round" stroke-width="2.667" d="M14.667 25.333c5.891 0 10.667-4.776 10.667-10.667S20.558 3.999 14.667 3.999v0C8.776 3.999 4 8.775 4 14.666s4.776 10.667 10.667 10.667v0zM28 28l-5.799-5.799" style="stroke:var(--color2, #efede8)"/></symbol><symbol id="x-red" viewBox="0 0 32 32"><path fill="none" stroke="#e6533c" stroke-linecap="round" stroke-linejoin="round" stroke-width="3.556" d="M24 8 8 24M8 8l16 16" style="stroke:var(--color3, #e6533c)"/></symbol><symbol id="circle-running-man" viewBox="0 0 32 32"><path fill="#efa082" d="M32 16c0 8.837-7.163 16-16 16S0 24.837 0 16 7.163 0 16 0s16 7.163 16 16z" style="fill:var(--color4, #efa082)"/><path fill="#efede8" d="M25.097 11.633a.79.79 0 0 0-1.112-.098l.001-.001-2.188 1.837-1.007-2.493a.786.786 0 0 0-.152-.24 2.156 2.156 0 0 0-1.042-1.073l-.013-.006a2.12 2.12 0 0 0-.645-.173l-.009-.001c-.049-.027-.093-.06-.148-.077l-3.851-1.073a.79.79 0 0 0-.614.086l.004-.002a.775.775 0 0 0-.478.443l-.002.005-1.449 3.728a.792.792 0 0 0 .445 1.021l.005.002a.791.791 0 0 0 1.02-.448l.002-.005 1.224-3.147 1.753.487c-.043.069-.088.133-.123.208l-2.249 4.873c-.032.072-.049.144-.072.219l-2.733 4.58-4.571 1.529a1.169 1.169 0 1 0 1.389 1.878l-.003.002 4.68-1.612c.135-.103.244-.232.321-.38l.003-.006c.06-.063.127-.112.172-.189l1.628-2.731 2.892 2.464-3.093 3.485a1.167 1.167 0 1 0 1.746 1.548l.001-.002 3.861-4.349a1.14 1.14 0 0 0 .24-.449c.029-.088.029-.18.036-.271 0-.047.017-.088.013-.131a1.142 1.142 0 0 0-.398-.848l-.002-.001-2.66-2.268c.191-.183.355-.4.472-.656l1.724-3.733.552 1.472a.728.728 0 0 0 .456.577l.005.002.04.009a.742.742 0 0 0 .494.023l-.005.001h.004c.024-.007.048-.003.072-.013a.794.794 0 0 0 .31-.225l.001-.001 3.141-2.663c.333-.28.193-.777-.088-1.112zm-3.972-1.898a2.201 2.201 0 0 0 0-4.402 2.201 2.201 0 0 0 0 4.402z" style="fill:var(--color2, #efede8)"/></symbol><symbol id="arrow-back" viewBox="0 0 32 32"><path fill="none" stroke="#efede8" stroke-linecap="round" stroke-linejoin="round" stroke-width="2.6" d="M17 28 4 15m0 0L17 2M4 15h26" style="stroke:var(--color2, #efede8)"/></symbol><symbol id="arrow" viewBox="0 0 32 32"><path fill="none" stroke="#e6533c" stroke-linecap="round" stroke-linejoin="round" stroke-width="2.6" d="m15 28 13-13m0 0L15 2m13 13H2" style="stroke:var(--color3, #e6533c)"/></symbol><symbol id="white-logo" viewBox="0 0 286 32"><path fill="#efede8" d="M80.941 13.714c1.04 0 1.882.843 1.882 1.882v.807c0 1.04-.843 1.882-1.882 1.882H78.79a1.883 1.883 0 0 0-1.882 1.882v5.378c0 1.04-.843 1.882-1.882 1.882h-2.151c-1.04 0-1.882.843-1.882 1.882v.807c0 1.04-.843 1.882-1.882 1.882h-5.109a1.882 1.882 0 0 1-1.882-1.882v-9.95c0-1.04-.843-1.882-1.882-1.882H22.591c-1.04 0-1.882.843-1.882 1.882v9.95c0 1.04-.843 1.882-1.882 1.882h-5.109a1.882 1.882 0 0 1-1.882-1.882v-.807c0-1.04-.843-1.882-1.882-1.882H7.803a1.882 1.882 0 0 1-1.882-1.882v-5.378c0-1.04-.843-1.882-1.882-1.882H1.888a1.882 1.882 0 0 1-1.882-1.882v-.807c0-1.04.843-1.882 1.882-1.882h2.151c1.04 0 1.882-.843 1.882-1.882V6.454c0-1.04.843-1.882 1.882-1.882h2.151c1.04 0 1.882-.843 1.882-1.882v-.807c0-1.04.843-1.882 1.882-1.882h5.109c1.04 0 1.882.843 1.882 1.882v9.95c0 1.04.843 1.882 1.882 1.882h37.647c1.04 0 1.882-.843 1.882-1.882v-9.95c0-1.04.843-1.882 1.882-1.882h5.109c1.04 0 1.882.843 1.882 1.882v.807c0 1.04.843 1.882 1.882 1.882h2.151c1.04 0 1.882.843 1.882 1.882v5.378c0 1.04.843 1.882 1.882 1.882h2.151zM97.882 29.873V3.52h9.412c1.431 0 2.723.358 3.878 1.073 1.167.715 2.089 1.675 2.767 2.88s1.016 2.529 1.016 3.972c0 1.481-.351 2.824-1.054 4.028a8.007 8.007 0 0 1-2.786 2.861 7.27 7.27 0 0 1-3.821 1.054h-4.819v10.485h-4.593zm4.593-15.077h4.329c.653 0 1.249-.163 1.788-.489s.966-.765 1.28-1.318a3.56 3.56 0 0 0 .489-1.845 3.6 3.6 0 0 0-.489-1.864c-.314-.552-.74-.991-1.28-1.318s-1.136-.489-1.788-.489h-4.329v7.322zM125.393 30.363c-1.732 0-3.313-.445-4.744-1.336a10.019 10.019 0 0 1-3.407-3.576c-.841-1.506-1.261-3.169-1.261-4.988 0-1.38.245-2.667.734-3.859a10.07 10.07 0 0 1 2.014-3.162c.866-.916 1.87-1.631 3.012-2.146s2.359-.772 3.652-.772c1.732 0 3.307.446 4.725 1.336a9.765 9.765 0 0 1 3.407 3.595c.853 1.506 1.28 3.175 1.28 5.007 0 1.368-.245 2.648-.734 3.84s-1.167 2.246-2.033 3.162a9.351 9.351 0 0 1-2.993 2.127 8.696 8.696 0 0 1-3.652.772zm0-4.593c.916 0 1.738-.245 2.466-.734s1.299-1.136 1.713-1.939c.427-.803.64-1.681.64-2.635 0-.979-.219-1.87-.659-2.673a5.03 5.03 0 0 0-1.751-1.939 4.229 4.229 0 0 0-2.409-.734c-.904 0-1.719.245-2.447.734s-1.305 1.142-1.732 1.958c-.427.816-.64 1.7-.64 2.654 0 .991.22 1.889.659 2.692s1.023 1.443 1.751 1.92a4.455 4.455 0 0 0 2.409.696zM146.566 29.873h-4.555l-6.287-18.823h4.499l4.085 12.179 4.066-12.179h4.536l4.066 12.179 4.085-12.179h4.499l-6.287 18.823h-4.555l-4.085-12.235-4.066 12.235zM175.907 30.363c-1.732 0-3.313-.445-4.744-1.336-1.418-.891-2.554-2.089-3.407-3.595-.841-1.506-1.261-3.169-1.261-4.988 0-1.368.245-2.648.734-3.84a10.07 10.07 0 0 1 2.014-3.162c.866-.916 1.87-1.631 3.012-2.146s2.359-.772 3.652-.772c1.468 0 2.811.314 4.028.941 1.23.615 2.271 1.462 3.125 2.541s1.474 2.309 1.864 3.689c.389 1.38.477 2.823.264 4.329h-13.76c.176.703.464 1.336.866 1.901.401.552.91.998 1.525 1.336.615.326 1.311.496 2.089.508a4.054 4.054 0 0 0 2.184-.565 5.087 5.087 0 0 0 1.656-1.619l4.687 1.092a10.073 10.073 0 0 1-3.426 4.104c-1.518 1.054-3.219 1.581-5.101 1.581zm-4.63-11.784h9.261a4.772 4.772 0 0 0-.885-2.033c-.439-.615-.985-1.104-1.638-1.468s-1.355-.546-2.108-.546-1.449.182-2.089.546a5.018 5.018 0 0 0-1.638 1.449 5.318 5.318 0 0 0-.904 2.052zM188.269 29.873l-.019-18.823h4.593l.019 1.675a6.92 6.92 0 0 1 2.296-1.6 6.913 6.913 0 0 1 2.88-.602c.689 0 1.38.1 2.071.301l-1.807 4.631a3.882 3.882 0 0 0-1.431-.282 3.91 3.91 0 0 0-2.033.546 4.002 4.002 0 0 0-1.449 1.449 3.917 3.917 0 0 0-.527 2.014v10.692h-4.593zM202.221 29.873V3.52h9.412c1.431 0 2.722.358 3.878 1.073 1.167.715 2.089 1.675 2.767 2.88s1.016 2.529 1.016 3.972c0 1.481-.352 2.824-1.054 4.028a8.015 8.015 0 0 1-2.786 2.861 7.27 7.27 0 0 1-3.821 1.054h-4.819v10.485h-4.593zm4.593-15.077h4.329c.651 0 1.248-.163 1.788-.489a3.589 3.589 0 0 0 1.28-1.318 3.56 3.56 0 0 0 .489-1.845 3.61 3.61 0 0 0-.489-1.864 3.604 3.604 0 0 0-1.28-1.318 3.396 3.396 0 0 0-1.788-.489h-4.329v7.322zM221.248 22.908V11.049h4.593v10.654c0 .741.181 1.418.546 2.033a4.205 4.205 0 0 0 1.449 1.449 3.99 3.99 0 0 0 2.014.527c.753 0 1.431-.176 2.033-.527a4.248 4.248 0 0 0 1.449-1.449 3.925 3.925 0 0 0 .546-2.033V11.049h4.593l.019 18.824h-4.595l-.017-1.713a7.416 7.416 0 0 1-2.315 1.619 7.077 7.077 0 0 1-2.861.584c-1.368 0-2.618-.332-3.748-.998a7.852 7.852 0 0 1-2.709-2.692c-.666-1.129-.998-2.384-.998-3.765zM242.368 29.873V1.638h4.593v28.235h-4.593zM257.039 30.212a10.38 10.38 0 0 1-2.842-.584 8.411 8.411 0 0 1-2.409-1.374 5.87 5.87 0 0 1-1.619-2.071l3.878-1.656c.151.251.395.521.734.809.339.276.74.508 1.205.696a4.22 4.22 0 0 0 1.562.282c.476 0 .928-.063 1.355-.188.439-.138.791-.345 1.054-.621.275-.276.414-.634.414-1.073 0-.464-.164-.822-.489-1.073-.314-.264-.715-.458-1.205-.584a37.86 37.86 0 0 0-1.393-.376 13.641 13.641 0 0 1-3.332-1.111c-1.016-.502-1.839-1.148-2.466-1.939-.616-.803-.922-1.769-.922-2.899 0-1.242.326-2.315.979-3.219a6.57 6.57 0 0 1 2.579-2.089 8.159 8.159 0 0 1 3.445-.734c1.493 0 2.861.314 4.104.941 1.254.615 2.246 1.487 2.974 2.616l-3.633 2.146a3.063 3.063 0 0 0-.734-.828 3.986 3.986 0 0 0-1.073-.64 3.644 3.644 0 0 0-1.261-.301 5.032 5.032 0 0 0-1.544.151c-.465.125-.841.339-1.129.64-.277.301-.414.703-.414 1.205 0 .477.188.834.565 1.073.376.226.828.402 1.355.527.538.125 1.054.264 1.544.414a18.8 18.8 0 0 1 3.106 1.336c.979.527 1.762 1.173 2.353 1.939.589.766.872 1.682.847 2.748 0 1.217-.365 2.284-1.092 3.2-.728.904-1.67 1.594-2.824 2.071-1.143.477-2.366.665-3.671.565zM275.834 30.363c-1.732 0-3.313-.445-4.744-1.336-1.419-.891-2.554-2.089-3.407-3.595-.841-1.506-1.261-3.169-1.261-4.988 0-1.368.245-2.648.734-3.84a10.052 10.052 0 0 1 2.014-3.162 9.447 9.447 0 0 1 3.012-2.146 8.776 8.776 0 0 1 3.652-.772c1.468 0 2.81.314 4.028.941a9.185 9.185 0 0 1 3.125 2.541 10.474 10.474 0 0 1 1.864 3.689c.388 1.38.476 2.823.264 4.329h-13.76c.175.703.463 1.336.866 1.901.401.552.909.998 1.525 1.336.614.326 1.31.496 2.089.508a4.059 4.059 0 0 0 2.184-.565 5.107 5.107 0 0 0 1.656-1.619l4.687 1.092a10.08 10.08 0 0 1-3.426 4.104c-1.519 1.054-3.219 1.581-5.101 1.581zm-4.63-11.784h9.261a4.784 4.784 0 0 0-.885-2.033 4.972 4.972 0 0 0-1.638-1.468c-.653-.364-1.355-.546-2.108-.546s-1.449.182-2.089.546a5.018 5.018 0 0 0-1.638 1.449 5.288 5.288 0 0 0-.904 2.052z" style="fill:var(--color2, #efede8)"/></symbol><symbol id="pause" viewBox="0 0 32 32"><path fill="#e6533c" stroke="#e6533c" stroke-linecap="round" stroke-linejoin="round" d="M4 10.4c0-2.24 0-3.36.436-4.216a3.991 3.991 0 0 1 1.748-1.748C7.04 4 8.16 4 10.4 4h11.2c2.24 0 3.36 0 4.216.436a3.996 3.996 0 0 1 1.748 1.748C28 7.04 28 8.16 28 10.4v11.2c0 2.24 0 3.36-.436 4.216a4.001 4.001 0 0 1-1.748 1.748C24.96 28 23.84 28 21.6 28H10.4c-2.24 0-3.36 0-4.216-.436a3.996 3.996 0 0 1-1.748-1.748C4 24.96 4 23.84 4 21.6V10.4z" style="fill:var(--color3, #e6533c);stroke:var(--color3, #e6533c)"/><path fill="none" stroke="#efede8" stroke-linecap="round" stroke-linejoin="round" stroke-width="1.3" d="M12.666 20v-8m6.667 8v-8" style="stroke:var(--color2, #efede8)"/></symbol><symbol id="play" viewBox="0 0 32 32"><path fill="#e6533c" stroke="#e6533c" stroke-linecap="round" stroke-linejoin="round" d="M4 10.4c0-2.24 0-3.36.436-4.216a3.991 3.991 0 0 1 1.748-1.748C7.04 4 8.16 4 10.4 4h11.2c2.24 0 3.36 0 4.216.436a3.996 3.996 0 0 1 1.748 1.748C28 7.04 28 8.16 28 10.4v11.2c0 2.24 0 3.36-.436 4.216a4.001 4.001 0 0 1-1.748 1.748C24.96 28 23.84 28 21.6 28H10.4c-2.24 0-3.36 0-4.216-.436a3.996 3.996 0 0 1-1.748-1.748C4 24.96 4 23.84 4 21.6V10.4z" style="fill:var(--color3, #e6533c);stroke:var(--color3, #e6533c)"/><path fill="#efede8" stroke="#efede8" stroke-linecap="round" stroke-linejoin="round" stroke-width="1.3" d="M11.917 10.75 20.084 16l-8.167 5.25v-10.5z" style="fill:var(--color2, #efede8);stroke:var(--color2, #efede8)"/></symbol><symbol id="log-out" viewBox="0 0 32 32"><path fill="none" stroke="#e6533c" stroke-linecap="round" stroke-linejoin="round" stroke-width="2.4" d="M12 4h-1.6c-2.24 0-3.36 0-4.216.436a3.991 3.991 0 0 0-1.748 1.748C4 7.04 4 8.16 4 10.4v11.2c0 2.24 0 3.36.436 4.216a3.996 3.996 0 0 0 1.748 1.748C7.04 28 8.16 28 10.4 28H12M21.333 22.667 28 16m0 0-6.667-6.667M28 16H12" style="stroke:var(--color3, #e6533c)"/></symbol><symbol id="warning" viewBox="0 0 32 32"><path fill="#efa082" d="M32 16c0 8.837-7.163 16-16 16S0 24.837 0 16 7.163 0 16 0s16 7.163 16 16z" style="fill:var(--color4, #efa082)"/><path fill="none" stroke="#efede8" stroke-linecap="round" stroke-linejoin="round" stroke-width="2.667" d="M16 25.333v.013M16 20V6.667" style="stroke:var(--color2, #efede8)"/></symbol><symbol id="settings" viewBox="0 0 32 32"><path fill="none" stroke="#efede8" stroke-linecap="round" stroke-linejoin="round" stroke-width="2.286" d="M16 20a4 4 0 1 0 0-8 4 4 0 0 0 0 8z" style="stroke:var(--color2, #efede8)"/><path fill="none" stroke="#efede8" stroke-linecap="round" stroke-linejoin="round" stroke-width="2.286" d="M24.969 19.636a2.005 2.005 0 0 0 .4 2.206l.073.073a2.422 2.422 0 0 1 0 3.43 2.432 2.432 0 0 1-1.715.711 2.42 2.42 0 0 1-1.715-.711l-.073-.073a2 2 0 0 0-2.206-.4 1.997 1.997 0 0 0-1.213 1.83v.206a2.421 2.421 0 0 1-2.424 2.424 2.421 2.421 0 0 1-2.424-2.424v-.109a1.996 1.996 0 0 0-1.309-1.831 2.005 2.005 0 0 0-2.206.4l-.073.073a2.422 2.422 0 0 1-3.43 0 2.432 2.432 0 0 1-.711-1.715 2.42 2.42 0 0 1 .711-1.715l.073-.073a2 2 0 0 0 .4-2.206c-.154-.358-.409-.664-.734-.88s-.706-.331-1.096-.332h-.206a2.421 2.421 0 0 1-2.424-2.424 2.421 2.421 0 0 1 2.424-2.424H5.2a1.996 1.996 0 0 0 1.831-1.309 1.997 1.997 0 0 0-.4-2.206l-.073-.073a2.422 2.422 0 0 1 0-3.43 2.422 2.422 0 0 1 3.43 0l.073.073a2.004 2.004 0 0 0 2.206.4h.097a1.997 1.997 0 0 0 1.213-1.83v-.206a2.421 2.421 0 0 1 2.424-2.424 2.421 2.421 0 0 1 2.424 2.424V5.2a2.005 2.005 0 0 0 1.212 1.83 2.005 2.005 0 0 0 2.206-.4l.073-.073a2.432 2.432 0 0 1 1.715-.711 2.42 2.42 0 0 1 1.715.711 2.428 2.428 0 0 1 0 3.43l-.073.073a2.004 2.004 0 0 0-.4 2.206v.097c.154.358.409.664.734.88s.706.331 1.096.332h.206a2.421 2.421 0 0 1 2.424 2.424 2.421 2.421 0 0 1-2.424 2.424H26.8a2.005 2.005 0 0 0-1.83 1.212z" style="stroke:var(--color2, #efede8)"/></symbol><symbol id="x-white" viewBox="0 0 32 32"><path fill="none" stroke="#efede8" stroke-linecap="round" stroke-linejoin="round" stroke-width="2" d="M24 8 8 24M8 8l16 16" style="stroke:var(--color2, #efede8)"/></symbol><symbol id="log-out-white" viewBox="0 0 32 32"><path fill="none" stroke="#efede8" stroke-linecap="round" stroke-linejoin="round" stroke-width="2.4" d="M12 4h-1.6c-2.24 0-3.36 0-4.216.436a3.991 3.991 0 0 0-1.748 1.748C4 7.04 4 8.16 4 10.4v11.2c0 2.24 0 3.36.436 4.216a3.996 3.996 0 0 0 1.748 1.748C7.04 28 8.16 28 10.4 28H12M21.333 22.667 28 16m0 0-6.667-6.667M28 16H12" style="stroke:var(--color2, #efede8)"/></symbol><symbol id="play-log" viewBox="0 0 27 32"><path fill="#efede8" d="M26.667 16 0 31.396V.604L26.667 16z" style="fill:var(--color2, #efede8)"/></symbol><symbol id="apple" viewBox="0 0 32 32"><path fill="#ef8964" d="M19.454 4.758a.794.794 0 0 0 .479-.399.798.798 0 0 0-.672-1.166.798.798 0 0 0-.314.048c-1.501.499-2.435 1.731-2.986 3.051a8.02 8.02 0 0 0-.203.542 6.394 6.394 0 0 0-1.138-1.541 6.39 6.39 0 0 0-4.705-1.872 1.74 1.74 0 0 0-1.694 1.694 6.39 6.39 0 0 0 1.872 4.705l.05.048a6.401 6.401 0 0 0-5.027 5.747l-.01.118a13.6 13.6 0 0 0 1.616 7.597l.576 1.053a.979.979 0 0 0 .051.08l1.6 2.243a4.301 4.301 0 0 0 3.142 1.785 4.297 4.297 0 0 0 3.392-1.244.743.743 0 0 1 .516-.214.72.72 0 0 1 .516.214 4.299 4.299 0 0 0 5.16.698 4.28 4.28 0 0 0 1.374-1.239l1.6-2.242a.625.625 0 0 0 .051-.082l.574-1.053a13.598 13.598 0 0 0 1.616-7.597l-.008-.118a6.386 6.386 0 0 0-2.442-4.533 6.404 6.404 0 0 0-4.99-1.268l-2.651.442c.016-1.09.208-2.315.638-3.349.448-1.08 1.114-1.848 2.013-2.149h.002zm-8.4 9.6a1.955 1.955 0 0 0-1.147.968c-.296.557-.499 1.475-.312 2.974a.8.8 0 0 1-1.587.198c-.213-1.702-.016-2.984.488-3.926a3.551 3.551 0 0 1 2.053-1.733.791.791 0 0 1 .858.235.814.814 0 0 1 .194.581.791.791 0 0 1-.274.548.814.814 0 0 1-.271.155z" style="fill:var(--color1, #ef8964)"/></symbol><symbol id="bubble" viewBox="0 0 32 32"><path fill="#ef8964" d="M20.793 16.346c3.778 0 6.84-3.062 6.84-6.84s-3.062-6.84-6.84-6.84-6.84 3.062-6.84 6.84 3.062 6.84 6.84 6.84zM8.476 25.919a4.107 4.107 0 1 0 0-8.215 4.107 4.107 0 0 0 0 8.215zM22.151 29.332a3.413 3.413 0 1 0 0-6.826 3.413 3.413 0 0 0 0 6.826z" style="fill:var(--color1, #ef8964)"/></symbol><symbol id="dumbbell" viewBox="0 0 46 32"><path fill="#ef8964" d="M7.429 4.571H4a1.71 1.71 0 0 0-1.714 1.714v7.429H.572a.573.573 0 0 0-.571.571v3.429c0 .314.257.571.571.571h1.714v7.429c0 .95.764 1.714 1.714 1.714h3.429a1.71 1.71 0 0 0 1.714-1.714V6.285a1.71 1.71 0 0 0-1.714-1.714zm37.714 9.143h-1.714V6.285a1.71 1.71 0 0 0-1.714-1.714h-3.429a1.71 1.71 0 0 0-1.714 1.714v19.429c0 .95.764 1.714 1.714 1.714h3.429a1.71 1.71 0 0 0 1.714-1.714v-7.429h1.714a.573.573 0 0 0 .571-.571v-3.429a.573.573 0 0 0-.571-.571zM32.571 0h-3.429a1.71 1.71 0 0 0-1.714 1.714v12h-9.143v-12A1.71 1.71 0 0 0 16.571 0h-3.429a1.71 1.71 0 0 0-1.714 1.714v28.571c0 .95.764 1.714 1.714 1.714h3.429a1.71 1.71 0 0 0 1.714-1.714v-12h9.143v12c0 .95.764 1.714 1.714 1.714h3.429a1.71 1.71 0 0 0 1.714-1.714V1.714A1.71 1.71 0 0 0 32.571 0z" style="fill:var(--color1, #ef8964)"/></symbol><symbol id="fire" viewBox="0 0 32 32"><path fill="#ef8964" d="M16.001 22.291c-.946.72-2.898 2.5-2.898 4.925 0 1.601 1.3 2.904 2.897 2.904s2.897-1.303 2.897-2.904c0-2.297-1.954-4.161-2.895-4.925z" style="fill:var(--color1, #ef8964)"/><path fill="#ef8964" d="M22.789 5.57a.936.936 0 0 0-1.34-.064l-4.412 4.117V1c0-.722-.87-1.261-1.522-.867-.123.075-3.055 1.865-6.017 5.116-3.602 3.953-6.055 8.766-6.055 14.164C3.443 26.354 9.076 32 16 32c-2.631 0-4.772-2.146-4.772-4.784 0-4.262 4.138-6.786 4.314-6.891a.938.938 0 0 1 .996.022c.173.114 4.234 2.838 4.234 6.869C20.772 29.854 18.631 32 16 32c6.924 0 12.557-5.647 12.557-12.587 0-5.241-2.313-9.938-5.767-13.843z" style="fill:var(--color1, #ef8964)"/></symbol><symbol id="food" viewBox="0 0 32 32"><path fill="#ef8964" d="M24 4a1.332 1.332 0 0 1 1.324 1.177l.009.156v21.333a1.333 1.333 0 0 1-2.657.157l-.009-.156V20h-1.333a1.333 1.333 0 0 1-1.324-1.177l-.009-.156v-8c0-2.947 2-6.667 4-6.667zm-8 0a1.332 1.332 0 0 1 1.324 1.177l.009.156V12a5.333 5.333 0 0 1-4 5.165v9.501a1.336 1.336 0 0 1-2.189 1.022 1.332 1.332 0 0 1-.468-.865l-.009-.156v-9.501a5.331 5.331 0 0 1-3.994-4.89l-.007-.275V5.334a1.336 1.336 0 0 1 2.189-1.021c.261.219.428.528.468.865l.009.156v6.667a2.665 2.665 0 0 0 1.333 2.309V5.334a1.336 1.336 0 0 1 2.189-1.021c.261.219.428.528.468.865l.009.156.001 8.976a2.664 2.664 0 0 0 1.323-2.084l.009-.225V5.334A1.335 1.335 0 0 1 15.998 4z" style="fill:var(--color1, #ef8964)"/></symbol><symbol id="pulse-logo" viewBox="0 0 83 32"><path fill="#e6533c" d="M80.941 13.714c1.04 0 1.882.843 1.882 1.882v.807c0 1.04-.843 1.882-1.882 1.882H78.79a1.883 1.883 0 0 0-1.882 1.882v5.378c0 1.04-.843 1.882-1.882 1.882h-2.151c-1.04 0-1.882.843-1.882 1.882v.807c0 1.04-.843 1.882-1.882 1.882h-5.109a1.882 1.882 0 0 1-1.882-1.882v-9.95c0-1.04-.843-1.882-1.882-1.882H22.591c-1.04 0-1.882.843-1.882 1.882v9.95c0 1.04-.843 1.882-1.882 1.882h-5.109a1.882 1.882 0 0 1-1.882-1.882v-.807c0-1.04-.843-1.882-1.882-1.882H7.803a1.882 1.882 0 0 1-1.882-1.882v-5.378c0-1.04-.843-1.882-1.882-1.882H1.888a1.882 1.882 0 0 1-1.882-1.882v-.807c0-1.04.843-1.882 1.882-1.882h2.151c1.04 0 1.882-.843 1.882-1.882V6.454c0-1.04.843-1.882 1.882-1.882h2.151c1.04 0 1.882-.843 1.882-1.882v-.807c0-1.04.843-1.882 1.882-1.882h5.109c1.04 0 1.882.843 1.882 1.882v9.95c0 1.04.843 1.882 1.882 1.882h37.647c1.04 0 1.882-.843 1.882-1.882v-9.95c0-1.04.843-1.882 1.882-1.882h5.109c1.04 0 1.882.843 1.882 1.882v.807c0 1.04.843 1.882 1.882 1.882h2.151c1.04 0 1.882.843 1.882 1.882v5.378c0 1.04.843 1.882 1.882 1.882h2.151z" style="fill:var(--color3, #e6533c)"/></symbol><symbol id="running-man" viewBox="0 0 32 32"><path fill="#ef8964" d="M29.647 9.451a1.185 1.185 0 0 0-1.667-.149l-3.282 2.757-1.509-3.739a1.163 1.163 0 0 0-.229-.362 3.215 3.215 0 0 0-1.582-1.617 3.24 3.24 0 0 0-.982-.262c-.073-.038-.139-.088-.222-.114l-5.775-1.61a1.19 1.19 0 0 0-.917.125 1.155 1.155 0 0 0-.719.672l-2.175 5.592a1.188 1.188 0 0 0 .676 1.534 1.187 1.187 0 0 0 1.532-.678l1.837-4.722 2.63.731c-.064.104-.133.201-.185.312l-3.372 7.309c-.049.107-.075.217-.109.328l-4.098 6.871-6.859 2.294a1.751 1.751 0 0 0 2.081 2.819l7.018-2.417c.215-.156.371-.36.489-.58.088-.094.189-.168.256-.284l2.443-4.096 4.337 3.696-4.641 5.23a1.75 1.75 0 1 0 2.622 2.32l5.791-6.524a1.72 1.72 0 0 0 .36-.676c.043-.132.043-.269.054-.406 0-.069.026-.132.021-.196a1.72 1.72 0 0 0-.601-1.274l-3.991-3.403c.288-.274.532-.6.709-.983l2.585-5.599.828 2.206c.035.196.1.388.239.549.125.149.284.248.454.317.017.009.038.01.059.016.107.038.216.075.329.08.133.012.269-.005.405-.043l.005-.002c.036-.009.073-.002.109-.017a1.17 1.17 0 0 0 .466-.34l4.71-3.998c.501-.421.289-1.166-.132-1.667zM23.689 6.602a3.301 3.301 0 1 0 0-6.602 3.301 3.301 0 0 0 0 6.602z" style="fill:var(--color1, #ef8964)"/></symbol><symbol id="burger-menu" viewBox="0 0 46 32">
<path fill="none" stroke="#e6533c" style="stroke: var(--color1, #e6533c)" stroke-linejoin="round" stroke-linecap="round" stroke-miterlimit="4" stroke-width="4.5714" d="M2.286 16h27.429M2.286 2.286h41.143M2.286 29.714h41.143"></path></symbol>
<symbol id="line" viewBox="0 0 87 32">
<path stroke-linejoin="round" stroke-linecap="round" stroke-miterlimit="4" stroke-width="1.7297" d="M60.717 0.865c-20.169 0.292-64.211 3.812-59.502 21.728 4.232 12.649 64.534 9.932 79.413 0.414s-5.555-19.422-34.037-15.916"></path>
</symbol>
<symbol id="icon-Polygon-1" viewBox="0 0 28 32">
<path d="M27.713 16l-27.713-16v32l27.713-16z"></path>
</symbol></defs></svg>