<svg aria-hidden="true" style="position: absolute; width: 0; height: 0; overflow: hidden;" version="1.1" xmlns="http://www.w3.org/2000/svg" xmlns:xlink="http://www.w3.org/1999/xlink">
<defs>
<symbol id="icon-Group" viewBox="0 0 28 32">
<path fill="#efede8" style="fill: var(--color1, #efede8)" d="M27.719 9.451c-0.422-0.501-1.168-0.567-1.668-0.149l-3.281 2.757-1.512-3.739c-0.051-0.14-0.133-0.258-0.227-0.362-0.309-0.686-0.844-1.275-1.582-1.617-0.32-0.146-0.652-0.224-0.984-0.262-0.070-0.038-0.137-0.088-0.223-0.114l-5.774-1.61c-0.324-0.088-0.648-0.031-0.918 0.125-0.316 0.107-0.59 0.338-0.719 0.672l-2.176 5.592c-0.234 0.608 0.066 1.294 0.676 1.534 0.609 0.236 1.297-0.068 1.535-0.678l1.836-4.722 2.629 0.731c-0.063 0.104-0.133 0.201-0.184 0.312l-3.375 7.309c-0.047 0.107-0.074 0.217-0.105 0.328l-4.102 6.871-6.856 2.294c-0.777 0.581-0.941 1.674-0.367 2.45 0.574 0.778 1.672 0.943 2.445 0.369l7.020-2.417c0.215-0.156 0.371-0.361 0.488-0.581 0.090-0.094 0.188-0.168 0.258-0.284l2.441-4.096 4.34 3.696-4.641 5.23c-0.641 0.721-0.578 1.832 0.148 2.469 0.723 0.643 1.828 0.575 2.473-0.149l5.789-6.524c0.18-0.201 0.289-0.433 0.363-0.676 0.043-0.132 0.043-0.269 0.051-0.405 0-0.069 0.027-0.132 0.023-0.196-0.016-0.478-0.211-0.943-0.602-1.274l-3.992-3.403c0.289-0.274 0.531-0.6 0.707-0.983l2.586-5.599 0.828 2.206c0.035 0.196 0.101 0.388 0.242 0.549 0.125 0.149 0.281 0.248 0.453 0.317 0.016 0.009 0.039 0.011 0.059 0.016 0.105 0.038 0.215 0.075 0.328 0.080 0.133 0.012 0.269-0.005 0.406-0.043 0.004-0.002 0.004-0.002 0.004-0.002 0.039-0.009 0.074-0.002 0.109-0.017 0.195-0.073 0.34-0.196 0.469-0.34l4.707-3.998c0.504-0.421 0.289-1.166-0.129-1.667z"></path>
<path fill="#efede8" style="fill: var(--color1, #efede8)" d="M25.059 3.301c0 1.823-1.477 3.301-3.301 3.301s-3.301-1.478-3.301-3.301c0-1.823 1.477-3.301 3.301-3.301s3.301 1.478 3.301 3.301z"></path>
</symbol>
<symbol id="icon-Polygon-1" viewBox="0 0 28 32">
<path fill="#efede8" style="fill: var(--color1, #efede8)" d="M27.713 16l-27.713-16v32l27.713-16z"></path>
</symbol>
</defs>
</svg>
<svg aria-hidden="true" style="position: absolute; width: 0; height: 0; overflow: hidden;" version="1.1" xmlns="http://www.w3.org/2000/svg" xmlns:xlink="http://www.w3.org/1999/xlink">
<defs>
<symbol id="icon-Icon-1" viewBox="0 0 32 32">
<path stroke-linejoin="round" stroke-linecap="round" stroke-miterlimit="4" stroke-width="2.6667" d="M23.778 14.444v-4.667c0-4.296-3.482-7.778-7.778-7.778s-7.778 3.482-7.778 7.778v4.667M9.467 30h13.067c2.614 0 3.92 0 4.919-0.509 0.878-0.447 1.592-1.161 2.039-2.039 0.509-0.998 0.509-2.305 0.509-4.919v-0.622c0-2.614 0-3.92-0.509-4.919-0.447-0.878-1.161-1.592-2.039-2.039-0.998-0.509-2.305-0.509-4.919-0.509h-13.067c-2.614 0-3.92 0-4.919 0.509-0.878 0.447-1.592 1.161-2.039 2.039-0.509 0.998-0.509 2.305-0.509 4.919v0.622c0 2.614 0 3.92 0.509 4.919 0.447 0.878 1.161 1.592 2.039 2.039 0.998 0.509 2.305 0.509 4.919 0.509z"></path>
</symbol>
<symbol id="icon-keyboard" viewBox="0 0 36 32">
<path d="M34 4h-32c-1.1 0-2 0.9-2 2v20c0 1.1 0.9 2 2 2h32c1.1 0 2-0.9 2-2v-20c0-1.1-0.9-2-2-2zM20 8h4v4h-4v-4zM26 14v4h-4v-4h4zM14 8h4v4h-4v-4zM20 14v4h-4v-4h4zM8 8h4v4h-4v-4zM14 14v4h-4v-4h4zM4 8h2v4h-2v-4zM4 14h4v4h-4v-4zM6 24h-2v-4h2v4zM24 24h-16v-4h16v4zM32 24h-6v-4h6v4zM32 18h-4v-4h4v4zM32 12h-6v-4h6v4z"></path>
</symbol>
</defs>
</svg>